<?xml version="1.0" encoding="UTF-8" standalone="no"?>
<!DOCTYPE svg PUBLIC "-//W3C//DTD SVG 1.1//EN"
 "http://www.w3.org/Graphics/SVG/1.1/DTD/svg11.dtd">
<!-- Generated by graphviz version 2.43.0 (0)
 -->
<!-- Title: ModuleLayerDependencies Pages: 1 -->
<svg width="781pt" height="2279pt"
 viewBox="0.00 0.00 781.00 2279.28" xmlns="http://www.w3.org/2000/svg" xmlns:xlink="http://www.w3.org/1999/xlink">
<g id="graph0" class="graph" transform="scale(1 1) rotate(0) translate(4 2275.28)">
<title>ModuleLayerDependencies</title>
<polygon fill="white" stroke="transparent" points="-4,4 -4,-2275.28 777,-2275.28 777,4 -4,4"/>
<g id="clust1" class="cluster">
<title>cluster_account</title>
<path fill="none" stroke="#d1d5db" d="M20,-1228C20,-1228 297.5,-1228 297.5,-1228 303.5,-1228 309.5,-1234 309.5,-1240 309.5,-1240 309.5,-1436 309.5,-1436 309.5,-1442 303.5,-1448 297.5,-1448 297.5,-1448 20,-1448 20,-1448 14,-1448 8,-1442 8,-1436 8,-1436 8,-1240 8,-1240 8,-1234 14,-1228 20,-1228"/>
<text text-anchor="middle" x="158.75" y="-1436" font-family="Helvetica,sans-Serif" font-size="10.00">account</text>
</g>
<g id="clust2" class="cluster">
<title>cluster_auth</title>
<path fill="none" stroke="#d1d5db" d="M251.5,-905C251.5,-905 543.5,-905 543.5,-905 549.5,-905 555.5,-911 555.5,-917 555.5,-917 555.5,-1174 555.5,-1174 555.5,-1180 549.5,-1186 543.5,-1186 543.5,-1186 251.5,-1186 251.5,-1186 245.5,-1186 239.5,-1180 239.5,-1174 239.5,-1174 239.5,-917 239.5,-917 239.5,-911 245.5,-905 251.5,-905"/>
<text text-anchor="middle" x="397.5" y="-1174" font-family="Helvetica,sans-Serif" font-size="10.00">auth</text>
</g>
<g id="clust3" class="cluster">
<title>cluster_book</title>
<path fill="none" stroke="#d1d5db" d="M20,-1643C20,-1643 297.5,-1643 297.5,-1643 303.5,-1643 309.5,-1649 309.5,-1655 309.5,-1655 309.5,-1912 309.5,-1912 309.5,-1918 303.5,-1924 297.5,-1924 297.5,-1924 20,-1924 20,-1924 14,-1924 8,-1918 8,-1912 8,-1912 8,-1655 8,-1655 8,-1649 14,-1643 20,-1643"/>
<text text-anchor="middle" x="158.75" y="-1912" font-family="Helvetica,sans-Serif" font-size="10.00">book</text>
</g>
<g id="clust4" class="cluster">
<title>cluster_email</title>
<path fill="none" stroke="#d1d5db" d="M128.5,-8C128.5,-8 420.5,-8 420.5,-8 426.5,-8 432.5,-14 432.5,-20 432.5,-20 432.5,-277 432.5,-277 432.5,-283 426.5,-289 420.5,-289 420.5,-289 128.5,-289 128.5,-289 122.5,-289 116.5,-283 116.5,-277 116.5,-277 116.5,-20 116.5,-20 116.5,-14 122.5,-8 128.5,-8"/>
<text text-anchor="middle" x="274.5" y="-277" font-family="Helvetica,sans-Serif" font-size="10.00">email</text>
</g>
<g id="clust5" class="cluster">
<title>cluster_genre</title>
<path fill="none" stroke="#d1d5db" d="M251.5,-1959C251.5,-1959 543.5,-1959 543.5,-1959 549.5,-1959 555.5,-1965 555.5,-1971 555.5,-1971 555.5,-2228 555.5,-2228 555.5,-2234 549.5,-2240 543.5,-2240 543.5,-2240 251.5,-2240 251.5,-2240 245.5,-2240 239.5,-2234 239.5,-2228 239.5,-2228 239.5,-1971 239.5,-1971 239.5,-1965 245.5,-1959 251.5,-1959"/>
<text text-anchor="middle" x="397.5" y="-2228" font-family="Helvetica,sans-Serif" font-size="10.00">genre</text>
</g>
<g id="clust6" class="cluster">
<title>cluster_kernel</title>
<path fill="none" stroke="#d1d5db" d="M374.5,-1194C374.5,-1194 753,-1194 753,-1194 759,-1194 765,-1200 765,-1206 765,-1206 765,-1368 765,-1368 765,-1374 759,-1380 753,-1380 753,-1380 374.5,-1380 374.5,-1380 368.5,-1380 362.5,-1374 362.5,-1368 362.5,-1368 362.5,-1206 362.5,-1206 362.5,-1200 368.5,-1194 374.5,-1194"/>
<text text-anchor="middle" x="563.75" y="-1368" font-family="Helvetica,sans-Serif" font-size="10.00">kernel</text>
</g>
<g id="clust7" class="cluster">
<title>cluster_lifecycle_events</title>
<path fill="none" stroke="#d1d5db" d="M251.5,-610C251.5,-610 429,-610 429,-610 435,-610 441,-616 441,-622 441,-622 441,-791 441,-791 441,-797 435,-803 429,-803 429,-803 251.5,-803 251.5,-803 245.5,-803 239.5,-797 239.5,-791 239.5,-791 239.5,-622 239.5,-622 239.5,-616 245.5,-610 251.5,-610"/>
<text text-anchor="middle" x="340.25" y="-791" font-family="Helvetica,sans-Serif" font-size="10.00">lifecycle&#45;events</text>
</g>
<g id="clust8" class="cluster">
<title>cluster_user</title>
<path fill="none" stroke="#d1d5db" d="M20,-382C20,-382 297.5,-382 297.5,-382 303.5,-382 309.5,-388 309.5,-394 309.5,-394 309.5,-590 309.5,-590 309.5,-596 303.5,-602 297.5,-602 297.5,-602 20,-602 20,-602 14,-602 8,-596 8,-590 8,-590 8,-394 8,-394 8,-388 14,-382 20,-382"/>
<text text-anchor="middle" x="158.75" y="-590" font-family="Helvetica,sans-Serif" font-size="10.00">user</text>
</g>
<!-- account/public -->
<g id="node1" class="node">
<title>account/public</title>
<path fill="#f3f4f6" stroke="#374151" d="M58,-1302C58,-1302 28,-1302 28,-1302 22,-1302 16,-1296 16,-1290 16,-1290 16,-1278 16,-1278 16,-1272 22,-1266 28,-1266 28,-1266 58,-1266 58,-1266 64,-1266 70,-1272 70,-1278 70,-1278 70,-1290 70,-1290 70,-1296 64,-1302 58,-1302"/>
<text text-anchor="middle" x="43" y="-1281.5" font-family="Helvetica,sans-Serif" font-size="10.00" fill="#111827">public</text>
</g>
<!-- account/application -->
<g id="node2" class="node">
<title>account/application</title>
<path fill="#dbeafe" stroke="#374151" d="M175,-1394C175,-1394 128,-1394 128,-1394 122,-1394 116,-1388 116,-1382 116,-1382 116,-1370 116,-1370 116,-1364 122,-1358 128,-1358 128,-1358 175,-1358 175,-1358 181,-1358 187,-1364 187,-1370 187,-1370 187,-1382 187,-1382 187,-1388 181,-1394 175,-1394"/>
<text text-anchor="middle" x="151.5" y="-1373.5" font-family="Helvetica,sans-Serif" font-size="10.00" fill="#111827">application</text>
</g>
<!-- account/public&#45;&gt;account/application -->
<g id="edge6" class="edge">
<title>account/public&#45;&gt;account/application</title>
<path fill="none" stroke="#4b5563" d="M62.64,-1302.1C75.64,-1314.49 93.53,-1331.13 110,-1345 113.21,-1347.7 116.62,-1350.47 120.05,-1353.18"/>
<polygon fill="#4b5563" stroke="#4b5563" points="118.77,-1355.29 125.8,-1357.67 121.79,-1351.43 118.77,-1355.29"/>
</g>
<!-- account/domain -->
<g id="node3" class="node">
<title>account/domain</title>
<path fill="#dcfce7" stroke="#374151" d="M289.5,-1333C289.5,-1333 259.5,-1333 259.5,-1333 253.5,-1333 247.5,-1327 247.5,-1321 247.5,-1321 247.5,-1309 247.5,-1309 247.5,-1303 253.5,-1297 259.5,-1297 259.5,-1297 289.5,-1297 289.5,-1297 295.5,-1297 301.5,-1303 301.5,-1309 301.5,-1309 301.5,-1321 301.5,-1321 301.5,-1327 295.5,-1333 289.5,-1333"/>
<text text-anchor="middle" x="274.5" y="-1312.5" font-family="Helvetica,sans-Serif" font-size="10.00" fill="#111827">domain</text>
</g>
<!-- account/public&#45;&gt;account/domain -->
<g id="edge7" class="edge">
<title>account/public&#45;&gt;account/domain</title>
<path fill="none" stroke="#4b5563" stroke-dasharray="1,5" d="M47.69,-1302.14C54.49,-1330.21 71.94,-1383.32 110,-1406 141.69,-1424.89 159.37,-1421.15 193,-1406 223.11,-1392.44 246.49,-1361.43 260.12,-1339.39"/>
<polygon fill="#4b5563" stroke="#4b5563" points="262.37,-1340.41 263.87,-1333.15 258.17,-1337.89 262.37,-1340.41"/>
</g>
<!-- account/presentation -->
<g id="node4" class="node">
<title>account/presentation</title>
<path fill="#fef9c3" stroke="#374151" d="M178.5,-1272C178.5,-1272 124.5,-1272 124.5,-1272 118.5,-1272 112.5,-1266 112.5,-1260 112.5,-1260 112.5,-1248 112.5,-1248 112.5,-1242 118.5,-1236 124.5,-1236 124.5,-1236 178.5,-1236 178.5,-1236 184.5,-1236 190.5,-1242 190.5,-1248 190.5,-1248 190.5,-1260 190.5,-1260 190.5,-1266 184.5,-1272 178.5,-1272"/>
<text text-anchor="middle" x="151.5" y="-1251.5" font-family="Helvetica,sans-Serif" font-size="10.00" fill="#111827">presentation</text>
</g>
<!-- account/public&#45;&gt;account/presentation -->
<g id="edge8" class="edge">
<title>account/public&#45;&gt;account/presentation</title>
<path fill="none" stroke="#4b5563" stroke-dasharray="1,5" d="M70.05,-1268.8C80.66,-1264.84 93.23,-1260.95 105.24,-1257.84"/>
<polygon fill="#4b5563" stroke="#4b5563" points="106.03,-1260.17 112.24,-1256.1 104.85,-1255.41 106.03,-1260.17"/>
</g>
<!-- account/transport -->
<g id="node5" class="node">
<title>account/transport</title>
<path fill="#ede9fe" stroke="#374151" d="M170,-1333C170,-1333 133,-1333 133,-1333 127,-1333 121,-1327 121,-1321 121,-1321 121,-1309 121,-1309 121,-1303 127,-1297 133,-1297 133,-1297 170,-1297 170,-1297 176,-1297 182,-1303 182,-1309 182,-1309 182,-1321 182,-1321 182,-1327 176,-1333 170,-1333"/>
<text text-anchor="middle" x="151.5" y="-1312.5" font-family="Helvetica,sans-Serif" font-size="10.00" fill="#111827">transport</text>
</g>
<!-- account/public&#45;&gt;account/transport -->
<g id="edge9" class="edge">
<title>account/public&#45;&gt;account/transport</title>
<path fill="none" stroke="#4b5563" stroke-dasharray="1,5" d="M70.05,-1291.58C83.28,-1295.43 99.57,-1300.18 114.03,-1304.38"/>
<polygon fill="#4b5563" stroke="#4b5563" points="113.55,-1306.8 120.96,-1306.4 114.92,-1302.09 113.55,-1306.8"/>
</g>
<!-- account/application&#45;&gt;account/domain -->
<g id="edge1" class="edge">
<title>account/application&#45;&gt;account/domain</title>
<path fill="none" stroke="#4b5563" d="M187.17,-1358.52C204.07,-1350 224.27,-1339.82 240.88,-1331.45"/>
<polygon fill="#4b5563" stroke="#4b5563" points="242.14,-1333.55 247.29,-1328.22 239.93,-1329.18 242.14,-1333.55"/>
</g>
<!-- kernel/public -->
<g id="node30" class="node">
<title>kernel/public</title>
<path fill="#f3f4f6" stroke="#374151" d="M412.5,-1333C412.5,-1333 382.5,-1333 382.5,-1333 376.5,-1333 370.5,-1327 370.5,-1321 370.5,-1321 370.5,-1309 370.5,-1309 370.5,-1303 376.5,-1297 382.5,-1297 382.5,-1297 412.5,-1297 412.5,-1297 418.5,-1297 424.5,-1303 424.5,-1309 424.5,-1309 424.5,-1321 424.5,-1321 424.5,-1327 418.5,-1333 412.5,-1333"/>
<text text-anchor="middle" x="397.5" y="-1312.5" font-family="Helvetica,sans-Serif" font-size="10.00" fill="#111827">public</text>
</g>
<!-- account/domain&#45;&gt;kernel/public -->
<g id="edge2" class="edge">
<title>account/domain&#45;&gt;kernel/public</title>
<path fill="none" stroke="#4b5563" d="M301.76,-1315C319.75,-1315 343.78,-1315 363.13,-1315"/>
<polygon fill="#4b5563" stroke="#4b5563" points="363.3,-1317.45 370.3,-1315 363.3,-1312.55 363.3,-1317.45"/>
</g>
<!-- account/presentation&#45;&gt;account/public -->
<g id="edge4" class="edge">
<title>account/presentation&#45;&gt;account/public</title>
<path fill="none" stroke="#4b5563" d="M118.24,-1272.13C105.22,-1276.72 90.21,-1280.97 77.11,-1283.77"/>
<polygon fill="#4b5563" stroke="#4b5563" points="76.44,-1281.41 70.05,-1285.18 77.4,-1286.22 76.44,-1281.41"/>
</g>
<!-- account/presentation&#45;&gt;account/domain -->
<g id="edge3" class="edge">
<title>account/presentation&#45;&gt;account/domain</title>
<path fill="none" stroke="#4b5563" d="M188.48,-1272.14C205.2,-1280.57 224.94,-1290.52 241.19,-1298.71"/>
<polygon fill="#4b5563" stroke="#4b5563" points="240.11,-1300.91 247.46,-1301.87 242.31,-1296.53 240.11,-1300.91"/>
</g>
<!-- auth/public -->
<g id="node6" class="node">
<title>auth/public</title>
<path fill="#f3f4f6" stroke="#374151" d="M289.5,-1082C289.5,-1082 259.5,-1082 259.5,-1082 253.5,-1082 247.5,-1076 247.5,-1070 247.5,-1070 247.5,-1058 247.5,-1058 247.5,-1052 253.5,-1046 259.5,-1046 259.5,-1046 289.5,-1046 289.5,-1046 295.5,-1046 301.5,-1052 301.5,-1058 301.5,-1058 301.5,-1070 301.5,-1070 301.5,-1076 295.5,-1082 289.5,-1082"/>
<text text-anchor="middle" x="274.5" y="-1061.5" font-family="Helvetica,sans-Serif" font-size="10.00" fill="#111827">public</text>
</g>
<!-- account/presentation&#45;&gt;auth/public -->
<g id="edge5" class="edge">
<title>account/presentation&#45;&gt;auth/public</title>
<path fill="none" stroke="#4b5563" d="M164.1,-1235.78C185.97,-1201.45 233.27,-1127.16 257.9,-1088.5"/>
<polygon fill="#4b5563" stroke="#4b5563" points="260.24,-1089.38 261.93,-1082.16 256.11,-1086.75 260.24,-1089.38"/>
</g>
<!-- account/transport&#45;&gt;account/domain -->
<g id="edge10" class="edge">
<title>account/transport&#45;&gt;account/domain</title>
<path fill="none" stroke="#4b5563" d="M182.1,-1315C199.76,-1315 222.23,-1315 240.47,-1315"/>
<polygon fill="#4b5563" stroke="#4b5563" points="240.49,-1317.45 247.49,-1315 240.49,-1312.55 240.49,-1317.45"/>
</g>
<!-- account/transport&#45;&gt;auth/public -->
<g id="edge11" class="edge">
<title>account/transport&#45;&gt;auth/public</title>
<path fill="none" stroke="#4b5563" stroke-dasharray="5,2" d="M180.59,-1296.9C185.17,-1293.05 189.54,-1288.71 193,-1284 238.33,-1222.37 260.51,-1132.52 269.08,-1089.2"/>
<polygon fill="#4b5563" stroke="#4b5563" points="271.52,-1089.5 270.44,-1082.17 266.71,-1088.58 271.52,-1089.5"/>
</g>
<!-- kernel/transport -->
<g id="node34" class="node">
<title>kernel/transport</title>
<path fill="#ede9fe" stroke="#374151" d="M651,-1265C651,-1265 614,-1265 614,-1265 608,-1265 602,-1259 602,-1253 602,-1253 602,-1241 602,-1241 602,-1235 608,-1229 614,-1229 614,-1229 651,-1229 651,-1229 657,-1229 663,-1235 663,-1241 663,-1241 663,-1253 663,-1253 663,-1259 657,-1265 651,-1265"/>
<text text-anchor="middle" x="632.5" y="-1244.5" font-family="Helvetica,sans-Serif" font-size="10.00" fill="#111827">transport</text>
</g>
<!-- account/transport&#45;&gt;kernel/transport -->
<g id="edge12" class="edge">
<title>account/transport&#45;&gt;kernel/transport</title>
<path fill="none" stroke="#4b5563" d="M182.18,-1330.07C253.14,-1363.8 436.08,-1436.97 562,-1365 596.82,-1345.1 615.93,-1300.18 624.91,-1271.86"/>
<polygon fill="#4b5563" stroke="#4b5563" points="627.29,-1272.46 626.98,-1265.05 622.61,-1271.03 627.29,-1272.46"/>
</g>
<!-- auth/application -->
<g id="node7" class="node">
<title>auth/application</title>
<path fill="#dbeafe" stroke="#374151" d="M421,-1159C421,-1159 374,-1159 374,-1159 368,-1159 362,-1153 362,-1147 362,-1147 362,-1135 362,-1135 362,-1129 368,-1123 374,-1123 374,-1123 421,-1123 421,-1123 427,-1123 433,-1129 433,-1135 433,-1135 433,-1147 433,-1147 433,-1153 427,-1159 421,-1159"/>
<text text-anchor="middle" x="397.5" y="-1138.5" font-family="Helvetica,sans-Serif" font-size="10.00" fill="#111827">application</text>
</g>
<!-- auth/public&#45;&gt;auth/application -->
<g id="edge26" class="edge">
<title>auth/public&#45;&gt;auth/application</title>
<path fill="none" stroke="#4b5563" d="M301.76,-1080.71C319.37,-1091.91 342.75,-1106.79 361.88,-1118.97"/>
<polygon fill="#4b5563" stroke="#4b5563" points="360.96,-1121.29 368.19,-1122.98 363.6,-1117.16 360.96,-1121.29"/>
</g>
<!-- auth/domain -->
<g id="node8" class="node">
<title>auth/domain</title>
<path fill="#dcfce7" stroke="#374151" d="M535.5,-1066C535.5,-1066 505.5,-1066 505.5,-1066 499.5,-1066 493.5,-1060 493.5,-1054 493.5,-1054 493.5,-1042 493.5,-1042 493.5,-1036 499.5,-1030 505.5,-1030 505.5,-1030 535.5,-1030 535.5,-1030 541.5,-1030 547.5,-1036 547.5,-1042 547.5,-1042 547.5,-1054 547.5,-1054 547.5,-1060 541.5,-1066 535.5,-1066"/>
<text text-anchor="middle" x="520.5" y="-1045.5" font-family="Helvetica,sans-Serif" font-size="10.00" fill="#111827">domain</text>
</g>
<!-- auth/public&#45;&gt;auth/domain -->
<g id="edge27" class="edge">
<title>auth/public&#45;&gt;auth/domain</title>
<path fill="none" stroke="#4b5563" stroke-dasharray="1,5" d="M301.8,-1057.87C317.45,-1054.54 337.74,-1050.74 356,-1049 400.92,-1044.71 453.1,-1045.36 486.2,-1046.47"/>
<polygon fill="#4b5563" stroke="#4b5563" points="486.29,-1048.93 493.38,-1046.73 486.47,-1044.03 486.29,-1048.93"/>
</g>
<!-- auth/infrastructure -->
<g id="node9" class="node">
<title>auth/infrastructure</title>
<path fill="#ffedd5" stroke="#374151" d="M427,-1010C427,-1010 368,-1010 368,-1010 362,-1010 356,-1004 356,-998 356,-998 356,-986 356,-986 356,-980 362,-974 368,-974 368,-974 427,-974 427,-974 433,-974 439,-980 439,-986 439,-986 439,-998 439,-998 439,-1004 433,-1010 427,-1010"/>
<text text-anchor="middle" x="397.5" y="-989.5" font-family="Helvetica,sans-Serif" font-size="10.00" fill="#111827">infrastructure</text>
</g>
<!-- auth/public&#45;&gt;auth/infrastructure -->
<g id="edge28" class="edge">
<title>auth/public&#45;&gt;auth/infrastructure</title>
<path fill="none" stroke="#4b5563" d="M294.67,-1045.81C309.4,-1035.12 330.39,-1021.96 349.49,-1011.18"/>
<polygon fill="#4b5563" stroke="#4b5563" points="350.95,-1013.16 355.88,-1007.62 348.57,-1008.88 350.95,-1013.16"/>
</g>
<!-- auth/presentation -->
<g id="node10" class="node">
<title>auth/presentation</title>
<path fill="#fef9c3" stroke="#374151" d="M424.5,-949C424.5,-949 370.5,-949 370.5,-949 364.5,-949 358.5,-943 358.5,-937 358.5,-937 358.5,-925 358.5,-925 358.5,-919 364.5,-913 370.5,-913 370.5,-913 424.5,-913 424.5,-913 430.5,-913 436.5,-919 436.5,-925 436.5,-925 436.5,-937 436.5,-937 436.5,-943 430.5,-949 424.5,-949"/>
<text text-anchor="middle" x="397.5" y="-928.5" font-family="Helvetica,sans-Serif" font-size="10.00" fill="#111827">presentation</text>
</g>
<!-- auth/public&#45;&gt;auth/presentation -->
<g id="edge29" class="edge">
<title>auth/public&#45;&gt;auth/presentation</title>
<path fill="none" stroke="#4b5563" d="M282.63,-1045.9C295.07,-1022.51 322.17,-983.33 353.28,-951.8"/>
<polygon fill="#4b5563" stroke="#4b5563" points="355.07,-953.48 358.31,-946.81 351.61,-950.01 355.07,-953.48"/>
</g>
<!-- auth/transport -->
<g id="node11" class="node">
<title>auth/transport</title>
<path fill="#ede9fe" stroke="#374151" d="M416,-1098C416,-1098 379,-1098 379,-1098 373,-1098 367,-1092 367,-1086 367,-1086 367,-1074 367,-1074 367,-1068 373,-1062 379,-1062 379,-1062 416,-1062 416,-1062 422,-1062 428,-1068 428,-1074 428,-1074 428,-1086 428,-1086 428,-1092 422,-1098 416,-1098"/>
<text text-anchor="middle" x="397.5" y="-1077.5" font-family="Helvetica,sans-Serif" font-size="10.00" fill="#111827">transport</text>
</g>
<!-- auth/public&#45;&gt;auth/transport -->
<g id="edge30" class="edge">
<title>auth/public&#45;&gt;auth/transport</title>
<path fill="none" stroke="#4b5563" d="M301.76,-1059.9C318.69,-1060.55 340.96,-1063.23 359.66,-1066.77"/>
<polygon fill="#4b5563" stroke="#4b5563" points="359.55,-1069.25 366.9,-1068.22 360.51,-1064.44 359.55,-1069.25"/>
</g>
<!-- kernel/domain -->
<g id="node32" class="node">
<title>kernel/domain</title>
<path fill="#dcfce7" stroke="#374151" d="M745,-1238C745,-1238 715,-1238 715,-1238 709,-1238 703,-1232 703,-1226 703,-1226 703,-1214 703,-1214 703,-1208 709,-1202 715,-1202 715,-1202 745,-1202 745,-1202 751,-1202 757,-1208 757,-1214 757,-1214 757,-1226 757,-1226 757,-1232 751,-1238 745,-1238"/>
<text text-anchor="middle" x="730" y="-1217.5" font-family="Helvetica,sans-Serif" font-size="10.00" fill="#111827">domain</text>
</g>
<!-- auth/domain&#45;&gt;kernel/domain -->
<g id="edge13" class="edge">
<title>auth/domain&#45;&gt;kernel/domain</title>
<path fill="none" stroke="#4b5563" d="M543.31,-1066.08C581.38,-1097.63 659.83,-1162.66 701.53,-1197.23"/>
<polygon fill="#4b5563" stroke="#4b5563" points="700.21,-1199.32 707.17,-1201.9 703.34,-1195.55 700.21,-1199.32"/>
</g>
<!-- auth/infrastructure&#45;&gt;auth/public -->
<g id="edge15" class="edge">
<title>auth/infrastructure&#45;&gt;auth/public</title>
<path fill="none" stroke="#4b5563" d="M378.16,-1010.14C359.65,-1023.89 330.66,-1041.65 308.2,-1053.31"/>
<polygon fill="#4b5563" stroke="#4b5563" points="306.89,-1051.23 301.76,-1056.58 309.11,-1055.6 306.89,-1051.23"/>
</g>
<!-- auth/infrastructure&#45;&gt;auth/domain -->
<g id="edge14" class="edge">
<title>auth/infrastructure&#45;&gt;auth/domain</title>
<path fill="none" stroke="#4b5563" d="M437.45,-1010.03C453.27,-1017.35 471.34,-1025.71 486.5,-1032.73"/>
<polygon fill="#4b5563" stroke="#4b5563" points="485.85,-1035.13 493.24,-1035.84 487.91,-1030.68 485.85,-1035.13"/>
</g>
<!-- auth/infrastructure&#45;&gt;kernel/public -->
<g id="edge18" class="edge">
<title>auth/infrastructure&#45;&gt;kernel/public</title>
<path fill="none" stroke="#4b5563" d="M374.44,-1010.27C360.39,-1022.95 343.71,-1041.16 336,-1061.5 319.94,-1103.89 316.42,-1224.61 336,-1265.5 342.1,-1278.24 353.25,-1288.74 364.4,-1296.74"/>
<polygon fill="#4b5563" stroke="#4b5563" points="363.04,-1298.78 370.21,-1300.7 365.8,-1294.73 363.04,-1298.78"/>
</g>
<!-- auth/infrastructure&#45;&gt;kernel/domain -->
<g id="edge16" class="edge">
<title>auth/infrastructure&#45;&gt;kernel/domain</title>
<path fill="none" stroke="#4b5563" d="M439.15,-991.54C473.51,-992.68 523.2,-997.97 562,-1017 640.53,-1055.51 695.08,-1150.14 717.54,-1195.28"/>
<polygon fill="#4b5563" stroke="#4b5563" points="715.46,-1196.61 720.74,-1201.82 719.87,-1194.46 715.46,-1196.61"/>
</g>
<!-- kernel/infrastructure -->
<g id="node33" class="node">
<title>kernel/infrastructure</title>
<path fill="#ffedd5" stroke="#374151" d="M550,-1238C550,-1238 491,-1238 491,-1238 485,-1238 479,-1232 479,-1226 479,-1226 479,-1214 479,-1214 479,-1208 485,-1202 491,-1202 491,-1202 550,-1202 550,-1202 556,-1202 562,-1208 562,-1214 562,-1214 562,-1226 562,-1226 562,-1232 556,-1238 550,-1238"/>
<text text-anchor="middle" x="520.5" y="-1217.5" font-family="Helvetica,sans-Serif" font-size="10.00" fill="#111827">infrastructure</text>
</g>
<!-- auth/infrastructure&#45;&gt;kernel/infrastructure -->
<g id="edge17" class="edge">
<title>auth/infrastructure&#45;&gt;kernel/infrastructure</title>
<path fill="none" stroke="#4b5563" d="M406.74,-1010.03C416.31,-1024.39 431.92,-1043.22 441,-1062 468.5,-1118.9 443.31,-1148.82 474.87,-1198.81"/>
<polygon fill="#4b5563" stroke="#4b5563" points="472.86,-1200.22 478.78,-1204.69 476.94,-1197.5 472.86,-1200.22"/>
</g>
<!-- auth/infrastructure&#45;&gt;kernel/transport -->
<g id="edge19" class="edge">
<title>auth/infrastructure&#45;&gt;kernel/transport</title>
<path fill="none" stroke="#4b5563" d="M412.95,-1010.18C428.16,-1028.61 453.4,-1057.29 479,-1078 512.48,-1105.09 531.76,-1097.34 562,-1128 589.3,-1155.67 609.94,-1196.16 621.38,-1222.04"/>
<polygon fill="#4b5563" stroke="#4b5563" points="619.2,-1223.16 624.23,-1228.61 623.69,-1221.21 619.2,-1223.16"/>
</g>
<!-- user/public -->
<g id="node39" class="node">
<title>user/public</title>
<path fill="#f3f4f6" stroke="#374151" d="M58,-544C58,-544 28,-544 28,-544 22,-544 16,-538 16,-532 16,-532 16,-520 16,-520 16,-514 22,-508 28,-508 28,-508 58,-508 58,-508 64,-508 70,-514 70,-520 70,-520 70,-532 70,-532 70,-538 64,-544 58,-544"/>
<text text-anchor="middle" x="43" y="-523.5" font-family="Helvetica,sans-Serif" font-size="10.00" fill="#111827">public</text>
</g>
<!-- auth/infrastructure&#45;&gt;user/public -->
<g id="edge20" class="edge">
<title>auth/infrastructure&#45;&gt;user/public</title>
<path fill="none" stroke="#4b5563" d="M355.91,-975.44C319.93,-959.11 267.84,-931.2 233,-894 132.31,-786.48 71.65,-615.04 51.5,-551.11"/>
<polygon fill="#4b5563" stroke="#4b5563" points="53.77,-550.16 49.35,-544.21 49.1,-551.62 53.77,-550.16"/>
</g>
<!-- auth/presentation&#45;&gt;account/public -->
<g id="edge21" class="edge">
<title>auth/presentation&#45;&gt;account/public</title>
<path fill="none" stroke="#4b5563" d="M359.43,-949.05C324.45,-967.2 271.73,-997.52 233,-1033 154.85,-1104.58 86.47,-1212.07 58.03,-1259.75"/>
<polygon fill="#4b5563" stroke="#4b5563" points="55.91,-1258.53 54.45,-1265.8 60.12,-1261.02 55.91,-1258.53"/>
</g>
<!-- auth/presentation&#45;&gt;auth/public -->
<g id="edge23" class="edge">
<title>auth/presentation&#45;&gt;auth/public</title>
<path fill="none" stroke="#4b5563" d="M384.85,-949.17C376.39,-957.05 364.9,-965.33 356,-974 334.79,-994.67 314.28,-1021.03 299.28,-1040.19"/>
<polygon fill="#4b5563" stroke="#4b5563" points="297.2,-1038.87 294.8,-1045.89 301.05,-1041.9 297.2,-1038.87"/>
</g>
<!-- auth/presentation&#45;&gt;auth/domain -->
<g id="edge22" class="edge">
<title>auth/presentation&#45;&gt;auth/domain</title>
<path fill="none" stroke="#4b5563" d="M426.16,-949.18C431.25,-952.9 436.41,-956.92 441,-961 463.2,-980.7 485.6,-1006.2 500.75,-1024.5"/>
<polygon fill="#4b5563" stroke="#4b5563" points="498.88,-1026.08 505.21,-1029.93 502.66,-1022.97 498.88,-1026.08"/>
</g>
<!-- auth/presentation&#45;&gt;kernel/public -->
<g id="edge25" class="edge">
<title>auth/presentation&#45;&gt;kernel/public</title>
<path fill="none" stroke="#4b5563" d="M359.34,-949.04C350.03,-955.39 341.24,-963.5 336,-973.5 320.93,-1002.23 321.99,-1236.24 336,-1265.5 342.1,-1278.24 353.25,-1288.74 364.4,-1296.74"/>
<polygon fill="#4b5563" stroke="#4b5563" points="363.04,-1298.78 370.21,-1300.7 365.8,-1294.73 363.04,-1298.78"/>
</g>
<!-- auth/presentation&#45;&gt;kernel/domain -->
<g id="edge24" class="edge">
<title>auth/presentation&#45;&gt;kernel/domain</title>
<path fill="none" stroke="#4b5563" d="M436.93,-936C494.49,-945.54 602.77,-971.75 663,-1039 703.59,-1084.32 719.82,-1156.6 725.81,-1194.66"/>
<polygon fill="#4b5563" stroke="#4b5563" points="723.42,-1195.24 726.88,-1201.8 728.27,-1194.51 723.42,-1195.24"/>
</g>
<!-- auth/transport&#45;&gt;auth/public -->
<g id="edge32" class="edge">
<title>auth/transport&#45;&gt;auth/public</title>
<path fill="none" stroke="#4b5563" d="M366.9,-1084.6C349.31,-1083.82 326.96,-1080.96 308.76,-1077.21"/>
<polygon fill="#4b5563" stroke="#4b5563" points="309.12,-1074.78 301.76,-1075.67 308.07,-1079.57 309.12,-1074.78"/>
</g>
<!-- auth/transport&#45;&gt;auth/domain -->
<g id="edge31" class="edge">
<title>auth/transport&#45;&gt;auth/domain</title>
<path fill="none" stroke="#4b5563" d="M428.1,-1072.17C445.76,-1067.5 468.23,-1061.56 486.47,-1056.73"/>
<polygon fill="#4b5563" stroke="#4b5563" points="487.35,-1059.04 493.49,-1054.88 486.1,-1054.3 487.35,-1059.04"/>
</g>
<!-- auth/transport&#45;&gt;kernel/public -->
<g id="edge33" class="edge">
<title>auth/transport&#45;&gt;kernel/public</title>
<path fill="none" stroke="#4b5563" d="M366.78,-1093.37C354.92,-1100.23 342.63,-1109.86 336,-1122.5 321.24,-1150.64 322.28,-1236.84 336,-1265.5 342.1,-1278.24 353.25,-1288.74 364.4,-1296.74"/>
<polygon fill="#4b5563" stroke="#4b5563" points="363.04,-1298.78 370.21,-1300.7 365.8,-1294.73 363.04,-1298.78"/>
</g>
<!-- auth/transport&#45;&gt;kernel/transport -->
<g id="edge34" class="edge">
<title>auth/transport&#45;&gt;kernel/transport</title>
<path fill="none" stroke="#4b5563" d="M427.79,-1098.19C461.02,-1119.12 516.5,-1155 562,-1189 576.87,-1200.11 592.82,-1213.32 605.68,-1224.32"/>
<polygon fill="#4b5563" stroke="#4b5563" points="604.08,-1226.18 610.99,-1228.89 607.28,-1222.47 604.08,-1226.18"/>
</g>
<!-- book/public -->
<g id="node12" class="node">
<title>book/public</title>
<path fill="#f3f4f6" stroke="#374151" d="M58,-1778C58,-1778 28,-1778 28,-1778 22,-1778 16,-1772 16,-1766 16,-1766 16,-1754 16,-1754 16,-1748 22,-1742 28,-1742 28,-1742 58,-1742 58,-1742 64,-1742 70,-1748 70,-1754 70,-1754 70,-1766 70,-1766 70,-1772 64,-1778 58,-1778"/>
<text text-anchor="middle" x="43" y="-1757.5" font-family="Helvetica,sans-Serif" font-size="10.00" fill="#111827">public</text>
</g>
<!-- book/application -->
<g id="node13" class="node">
<title>book/application</title>
<path fill="#dbeafe" stroke="#374151" d="M175,-1897C175,-1897 128,-1897 128,-1897 122,-1897 116,-1891 116,-1885 116,-1885 116,-1873 116,-1873 116,-1867 122,-1861 128,-1861 128,-1861 175,-1861 175,-1861 181,-1861 187,-1867 187,-1873 187,-1873 187,-1885 187,-1885 187,-1891 181,-1897 175,-1897"/>
<text text-anchor="middle" x="151.5" y="-1876.5" font-family="Helvetica,sans-Serif" font-size="10.00" fill="#111827">application</text>
</g>
<!-- book/public&#45;&gt;book/application -->
<g id="edge50" class="edge">
<title>book/public&#45;&gt;book/application</title>
<path fill="none" stroke="#4b5563" d="M57.41,-1778.25C70.24,-1795.32 90.48,-1821.22 110,-1842 114.41,-1846.69 119.31,-1851.48 124.13,-1855.99"/>
<polygon fill="#4b5563" stroke="#4b5563" points="122.51,-1857.83 129.32,-1860.76 125.83,-1854.22 122.51,-1857.83"/>
</g>
<!-- book/domain -->
<g id="node14" class="node">
<title>book/domain</title>
<path fill="#dcfce7" stroke="#374151" d="M289.5,-1798C289.5,-1798 259.5,-1798 259.5,-1798 253.5,-1798 247.5,-1792 247.5,-1786 247.5,-1786 247.5,-1774 247.5,-1774 247.5,-1768 253.5,-1762 259.5,-1762 259.5,-1762 289.5,-1762 289.5,-1762 295.5,-1762 301.5,-1768 301.5,-1774 301.5,-1774 301.5,-1786 301.5,-1786 301.5,-1792 295.5,-1798 289.5,-1798"/>
<text text-anchor="middle" x="274.5" y="-1777.5" font-family="Helvetica,sans-Serif" font-size="10.00" fill="#111827">domain</text>
</g>
<!-- book/public&#45;&gt;book/domain -->
<g id="edge51" class="edge">
<title>book/public&#45;&gt;book/domain</title>
<path fill="none" stroke="#4b5563" stroke-dasharray="1,5" d="M56.83,-1778.03C68.68,-1792.99 87.78,-1813.2 110,-1822 144.3,-1835.58 157.17,-1830.78 193,-1822 209.73,-1817.9 226.84,-1809.65 240.96,-1801.53"/>
<polygon fill="#4b5563" stroke="#4b5563" points="242.45,-1803.5 247.23,-1797.83 239.96,-1799.28 242.45,-1803.5"/>
</g>
<!-- book/infrastructure -->
<g id="node15" class="node">
<title>book/infrastructure</title>
<path fill="#ffedd5" stroke="#374151" d="M181,-1809C181,-1809 122,-1809 122,-1809 116,-1809 110,-1803 110,-1797 110,-1797 110,-1785 110,-1785 110,-1779 116,-1773 122,-1773 122,-1773 181,-1773 181,-1773 187,-1773 193,-1779 193,-1785 193,-1785 193,-1797 193,-1797 193,-1803 187,-1809 181,-1809"/>
<text text-anchor="middle" x="151.5" y="-1788.5" font-family="Helvetica,sans-Serif" font-size="10.00" fill="#111827">infrastructure</text>
</g>
<!-- book/public&#45;&gt;book/infrastructure -->
<g id="edge52" class="edge">
<title>book/public&#45;&gt;book/infrastructure</title>
<path fill="none" stroke="#4b5563" d="M70.05,-1767.58C79.95,-1770.46 91.55,-1773.84 102.82,-1777.12"/>
<polygon fill="#4b5563" stroke="#4b5563" points="102.37,-1779.54 109.78,-1779.15 103.74,-1774.84 102.37,-1779.54"/>
</g>
<!-- book/presentation -->
<g id="node16" class="node">
<title>book/presentation</title>
<path fill="#fef9c3" stroke="#374151" d="M178.5,-1748C178.5,-1748 124.5,-1748 124.5,-1748 118.5,-1748 112.5,-1742 112.5,-1736 112.5,-1736 112.5,-1724 112.5,-1724 112.5,-1718 118.5,-1712 124.5,-1712 124.5,-1712 178.5,-1712 178.5,-1712 184.5,-1712 190.5,-1718 190.5,-1724 190.5,-1724 190.5,-1736 190.5,-1736 190.5,-1742 184.5,-1748 178.5,-1748"/>
<text text-anchor="middle" x="151.5" y="-1727.5" font-family="Helvetica,sans-Serif" font-size="10.00" fill="#111827">presentation</text>
</g>
<!-- book/public&#45;&gt;book/presentation -->
<g id="edge53" class="edge">
<title>book/public&#45;&gt;book/presentation</title>
<path fill="none" stroke="#4b5563" stroke-dasharray="1,5" d="M70.05,-1744.8C80.66,-1740.84 93.23,-1736.95 105.24,-1733.84"/>
<polygon fill="#4b5563" stroke="#4b5563" points="106.03,-1736.17 112.24,-1732.1 104.85,-1731.41 106.03,-1736.17"/>
</g>
<!-- book/transport -->
<g id="node17" class="node">
<title>book/transport</title>
<path fill="#ede9fe" stroke="#374151" d="M170,-1687C170,-1687 133,-1687 133,-1687 127,-1687 121,-1681 121,-1675 121,-1675 121,-1663 121,-1663 121,-1657 127,-1651 133,-1651 133,-1651 170,-1651 170,-1651 176,-1651 182,-1657 182,-1663 182,-1663 182,-1675 182,-1675 182,-1681 176,-1687 170,-1687"/>
<text text-anchor="middle" x="151.5" y="-1666.5" font-family="Helvetica,sans-Serif" font-size="10.00" fill="#111827">transport</text>
</g>
<!-- book/public&#45;&gt;book/transport -->
<g id="edge54" class="edge">
<title>book/public&#45;&gt;book/transport</title>
<path fill="none" stroke="#4b5563" stroke-dasharray="1,5" d="M62.97,-1741.97C75.96,-1729.82 93.71,-1713.59 110,-1700 113.39,-1697.17 117,-1694.27 120.61,-1691.42"/>
<polygon fill="#4b5563" stroke="#4b5563" points="122.23,-1693.26 126.25,-1687.03 119.22,-1689.4 122.23,-1693.26"/>
</g>
<!-- book/application&#45;&gt;book/domain -->
<g id="edge35" class="edge">
<title>book/application&#45;&gt;book/domain</title>
<path fill="none" stroke="#4b5563" d="M174.69,-1860.84C194.73,-1844.44 224.3,-1820.25 245.87,-1802.61"/>
<polygon fill="#4b5563" stroke="#4b5563" points="247.58,-1804.37 251.45,-1798.04 244.48,-1800.58 247.58,-1804.37"/>
</g>
<!-- book/application&#45;&gt;kernel/domain -->
<g id="edge36" class="edge">
<title>book/application&#45;&gt;kernel/domain</title>
<path fill="none" stroke="#4b5563" d="M153.77,-1897.16C158.86,-1964.27 180.11,-2196.79 233,-2244 287.51,-2292.65 323.44,-2261 396.5,-2261 396.5,-2261 396.5,-2261 521.5,-2261 606.72,-2261 661.96,-2110.8 663,-2108 724.23,-1943.59 728.77,-1372.65 729.01,-1245.31"/>
<polygon fill="#4b5563" stroke="#4b5563" points="731.46,-1245.24 729.02,-1238.24 726.56,-1245.23 731.46,-1245.24"/>
</g>
<!-- book/domain&#45;&gt;kernel/public -->
<g id="edge38" class="edge">
<title>book/domain&#45;&gt;kernel/public</title>
<path fill="none" stroke="#4b5563" d="M285.25,-1761.94C294.33,-1744.48 307.67,-1717.06 316,-1692 358.9,-1562.92 384.42,-1401.18 393.12,-1339.99"/>
<polygon fill="#4b5563" stroke="#4b5563" points="395.55,-1340.31 394.1,-1333.04 390.69,-1339.63 395.55,-1340.31"/>
</g>
<!-- book/domain&#45;&gt;kernel/domain -->
<g id="edge37" class="edge">
<title>book/domain&#45;&gt;kernel/domain</title>
<path fill="none" stroke="#4b5563" d="M290.33,-1761.69C357.62,-1678.6 634.16,-1337.12 709.8,-1243.71"/>
<polygon fill="#4b5563" stroke="#4b5563" points="711.78,-1245.16 714.28,-1238.17 707.97,-1242.07 711.78,-1245.16"/>
</g>
<!-- book/infrastructure&#45;&gt;book/domain -->
<g id="edge39" class="edge">
<title>book/infrastructure&#45;&gt;book/domain</title>
<path fill="none" stroke="#4b5563" d="M193.13,-1787.31C208.33,-1785.92 225.41,-1784.37 239.91,-1783.05"/>
<polygon fill="#4b5563" stroke="#4b5563" points="240.48,-1785.46 247.23,-1782.39 240.04,-1780.58 240.48,-1785.46"/>
</g>
<!-- genre/public -->
<g id="node24" class="node">
<title>genre/public</title>
<path fill="#f3f4f6" stroke="#374151" d="M289.5,-2069C289.5,-2069 259.5,-2069 259.5,-2069 253.5,-2069 247.5,-2063 247.5,-2057 247.5,-2057 247.5,-2045 247.5,-2045 247.5,-2039 253.5,-2033 259.5,-2033 259.5,-2033 289.5,-2033 289.5,-2033 295.5,-2033 301.5,-2039 301.5,-2045 301.5,-2045 301.5,-2057 301.5,-2057 301.5,-2063 295.5,-2069 289.5,-2069"/>
<text text-anchor="middle" x="274.5" y="-2048.5" font-family="Helvetica,sans-Serif" font-size="10.00" fill="#111827">public</text>
</g>
<!-- book/infrastructure&#45;&gt;genre/public -->
<g id="edge41" class="edge">
<title>book/infrastructure&#45;&gt;genre/public</title>
<path fill="none" stroke="#4b5563" d="M166.9,-1809.04C175.27,-1820.12 185.6,-1834.85 193,-1849 216.73,-1894.35 213.98,-1909.48 233,-1957 242.47,-1980.66 254.04,-2007.3 262.38,-2026.17"/>
<polygon fill="#4b5563" stroke="#4b5563" points="260.22,-2027.34 265.3,-2032.75 264.7,-2025.35 260.22,-2027.34"/>
</g>
<!-- genre/infrastructure -->
<g id="node27" class="node">
<title>genre/infrastructure</title>
<path fill="#ffedd5" stroke="#374151" d="M427,-2213C427,-2213 368,-2213 368,-2213 362,-2213 356,-2207 356,-2201 356,-2201 356,-2189 356,-2189 356,-2183 362,-2177 368,-2177 368,-2177 427,-2177 427,-2177 433,-2177 439,-2183 439,-2189 439,-2189 439,-2201 439,-2201 439,-2207 433,-2213 427,-2213"/>
<text text-anchor="middle" x="397.5" y="-2192.5" font-family="Helvetica,sans-Serif" font-size="10.00" fill="#111827">infrastructure</text>
</g>
<!-- book/infrastructure&#45;&gt;genre/infrastructure -->
<g id="edge40" class="edge">
<title>book/infrastructure&#45;&gt;genre/infrastructure</title>
<path fill="none" stroke="#4b5563" d="M168.27,-1809.09C176.9,-1819.96 187.03,-1834.46 193,-1849 232.93,-1946.19 176.47,-1993.43 233,-2082 260.73,-2125.44 311.75,-2156.66 349.46,-2175.13"/>
<polygon fill="#4b5563" stroke="#4b5563" points="348.49,-2177.38 355.86,-2178.2 350.61,-2172.96 348.49,-2177.38"/>
</g>
<!-- book/infrastructure&#45;&gt;kernel/public -->
<g id="edge43" class="edge">
<title>book/infrastructure&#45;&gt;kernel/public</title>
<path fill="none" stroke="#4b5563" d="M179.62,-1772.76C184.3,-1769.11 188.95,-1765.12 193,-1761 214.44,-1739.19 214.51,-1729.36 233,-1705 268.55,-1658.17 289.07,-1654.26 316,-1602 362.43,-1511.9 384.94,-1391.67 392.95,-1340.15"/>
<polygon fill="#4b5563" stroke="#4b5563" points="395.4,-1340.35 394.03,-1333.06 390.55,-1339.62 395.4,-1340.35"/>
</g>
<!-- book/infrastructure&#45;&gt;kernel/infrastructure -->
<g id="edge42" class="edge">
<title>book/infrastructure&#45;&gt;kernel/infrastructure</title>
<path fill="none" stroke="#4b5563" d="M182.27,-1772.87C186.33,-1769.35 190.1,-1765.38 193,-1761 234.7,-1698.11 204.77,-1665.98 233,-1596 260.34,-1528.21 288.88,-1521.89 316,-1454 344.79,-1381.92 305.15,-1342.64 356,-1284 385.3,-1250.21 434.72,-1234.13 471.57,-1226.56"/>
<polygon fill="#4b5563" stroke="#4b5563" points="472.37,-1228.9 478.77,-1225.16 471.43,-1224.09 472.37,-1228.9"/>
</g>
<!-- book/presentation&#45;&gt;auth/public -->
<g id="edge44" class="edge">
<title>book/presentation&#45;&gt;auth/public</title>
<path fill="none" stroke="#4b5563" d="M183.27,-1711.88C187.1,-1708.4 190.53,-1704.43 193,-1700 244.88,-1606.89 215.26,-1327.11 233,-1222 241.03,-1174.44 256.3,-1120.21 265.63,-1089.25"/>
<polygon fill="#4b5563" stroke="#4b5563" points="268.06,-1089.68 267.75,-1082.27 263.37,-1088.26 268.06,-1089.68"/>
</g>
<!-- book/presentation&#45;&gt;book/public -->
<g id="edge46" class="edge">
<title>book/presentation&#45;&gt;book/public</title>
<path fill="none" stroke="#4b5563" d="M118.24,-1748.13C105.22,-1752.72 90.21,-1756.97 77.11,-1759.77"/>
<polygon fill="#4b5563" stroke="#4b5563" points="76.44,-1757.41 70.05,-1761.18 77.4,-1762.22 76.44,-1757.41"/>
</g>
<!-- book/presentation&#45;&gt;book/domain -->
<g id="edge45" class="edge">
<title>book/presentation&#45;&gt;book/domain</title>
<path fill="none" stroke="#4b5563" d="M190.79,-1745.82C206.76,-1752.42 225.13,-1760.01 240.49,-1766.36"/>
<polygon fill="#4b5563" stroke="#4b5563" points="239.91,-1768.77 247.32,-1769.18 241.79,-1764.24 239.91,-1768.77"/>
</g>
<!-- book/presentation&#45;&gt;genre/public -->
<g id="edge47" class="edge">
<title>book/presentation&#45;&gt;genre/public</title>
<path fill="none" stroke="#4b5563" d="M181.6,-1748.05C185.96,-1751.86 189.99,-1756.2 193,-1761 240.18,-1836.35 206.38,-1872.17 233,-1957 240.58,-1981.16 252.27,-2007.55 261.15,-2026.2"/>
<polygon fill="#4b5563" stroke="#4b5563" points="259.03,-2027.46 264.28,-2032.7 263.45,-2025.33 259.03,-2027.46"/>
</g>
<!-- book/presentation&#45;&gt;kernel/public -->
<g id="edge49" class="edge">
<title>book/presentation&#45;&gt;kernel/public</title>
<path fill="none" stroke="#4b5563" d="M179.68,-1711.82C184.35,-1708.16 188.99,-1704.16 193,-1700 226.52,-1665.27 293.4,-1563.65 316,-1521 349,-1458.72 376.07,-1379.83 388.74,-1340.18"/>
<polygon fill="#4b5563" stroke="#4b5563" points="391.16,-1340.66 390.94,-1333.25 386.49,-1339.18 391.16,-1340.66"/>
</g>
<!-- book/presentation&#45;&gt;kernel/domain -->
<g id="edge48" class="edge">
<title>book/presentation&#45;&gt;kernel/domain</title>
<path fill="none" stroke="#4b5563" d="M180.55,-1748.13C185.13,-1751.98 189.51,-1756.31 193,-1761 223.04,-1801.41 191.58,-1838.36 233,-1867 311.2,-1921.08 362.88,-1871.2 441,-1817 584.42,-1717.49 601.21,-1656.26 663,-1493 696.41,-1404.73 717.03,-1293.87 725.1,-1245.04"/>
<polygon fill="#4b5563" stroke="#4b5563" points="727.53,-1245.33 726.24,-1238.03 722.7,-1244.54 727.53,-1245.33"/>
</g>
<!-- book/transport&#45;&gt;auth/public -->
<g id="edge55" class="edge">
<title>book/transport&#45;&gt;auth/public</title>
<path fill="none" stroke="#4b5563" stroke-dasharray="5,2" d="M156.01,-1650.9C163.15,-1613.93 179.82,-1527.08 193,-1454 211.57,-1351.03 211.1,-1324.32 233,-1222 243.09,-1174.83 257.69,-1120.48 266.32,-1089.39"/>
<polygon fill="#4b5563" stroke="#4b5563" points="268.76,-1089.77 268.28,-1082.37 264.04,-1088.46 268.76,-1089.77"/>
</g>
<!-- book/transport&#45;&gt;book/domain -->
<g id="edge56" class="edge">
<title>book/transport&#45;&gt;book/domain</title>
<path fill="none" stroke="#4b5563" d="M177.32,-1687.19C182.6,-1691.28 188.06,-1695.69 193,-1700 213.67,-1718.05 235.67,-1740.13 251.44,-1756.52"/>
<polygon fill="#4b5563" stroke="#4b5563" points="249.93,-1758.49 256.54,-1761.85 253.47,-1755.1 249.93,-1758.49"/>
</g>
<!-- book/transport&#45;&gt;kernel/public -->
<g id="edge58" class="edge">
<title>book/transport&#45;&gt;kernel/public</title>
<path fill="none" stroke="#4b5563" d="M164.28,-1650.81C179.55,-1627.49 207.26,-1586.02 233,-1552 267.85,-1505.94 282.82,-1499.28 316,-1452 342.41,-1414.37 368.55,-1367.68 383.58,-1339.67"/>
<polygon fill="#4b5563" stroke="#4b5563" points="385.84,-1340.64 386.97,-1333.31 381.51,-1338.33 385.84,-1340.64"/>
</g>
<!-- book/transport&#45;&gt;kernel/domain -->
<g id="edge57" class="edge">
<title>book/transport&#45;&gt;kernel/domain</title>
<path fill="none" stroke="#4b5563" d="M181.27,-1687.27C185.66,-1691.05 189.8,-1695.33 193,-1700 228.86,-1752.32 182.25,-1798.95 233,-1837 311.75,-1896.04 369.39,-1828.52 441,-1761 607.61,-1603.89 697.64,-1328.56 722.09,-1244.84"/>
<polygon fill="#4b5563" stroke="#4b5563" points="724.47,-1245.42 724.06,-1238.02 719.76,-1244.06 724.47,-1245.42"/>
</g>
<!-- book/transport&#45;&gt;kernel/transport -->
<g id="edge59" class="edge">
<title>book/transport&#45;&gt;kernel/transport</title>
<path fill="none" stroke="#4b5563" d="M180.61,-1687.09C185.19,-1690.94 189.55,-1695.28 193,-1700 223.97,-1742.32 190.09,-1780.85 233,-1811 263.18,-1832.21 283.93,-1829.23 316,-1811 528.97,-1689.96 608.16,-1365.13 626.85,-1272.17"/>
<polygon fill="#4b5563" stroke="#4b5563" points="629.29,-1272.48 628.24,-1265.14 624.48,-1271.53 629.29,-1272.48"/>
</g>
<!-- email/public -->
<g id="node18" class="node">
<title>email/public</title>
<path fill="#f3f4f6" stroke="#374151" d="M166.5,-179C166.5,-179 136.5,-179 136.5,-179 130.5,-179 124.5,-173 124.5,-167 124.5,-167 124.5,-155 124.5,-155 124.5,-149 130.5,-143 136.5,-143 136.5,-143 166.5,-143 166.5,-143 172.5,-143 178.5,-149 178.5,-155 178.5,-155 178.5,-167 178.5,-167 178.5,-173 172.5,-179 166.5,-179"/>
<text text-anchor="middle" x="151.5" y="-158.5" font-family="Helvetica,sans-Serif" font-size="10.00" fill="#111827">public</text>
</g>
<!-- email/application -->
<g id="node19" class="node">
<title>email/application</title>
<path fill="#dbeafe" stroke="#374151" d="M298,-201C298,-201 251,-201 251,-201 245,-201 239,-195 239,-189 239,-189 239,-177 239,-177 239,-171 245,-165 251,-165 251,-165 298,-165 298,-165 304,-165 310,-171 310,-177 310,-177 310,-189 310,-189 310,-195 304,-201 298,-201"/>
<text text-anchor="middle" x="274.5" y="-180.5" font-family="Helvetica,sans-Serif" font-size="10.00" fill="#111827">application</text>
</g>
<!-- email/public&#45;&gt;email/application -->
<g id="edge67" class="edge">
<title>email/public&#45;&gt;email/application</title>
<path fill="none" stroke="#4b5563" d="M178.76,-165.77C194.08,-168.56 213.78,-172.14 231.24,-175.32"/>
<polygon fill="#4b5563" stroke="#4b5563" points="231.24,-177.81 238.57,-176.65 232.12,-172.99 231.24,-177.81"/>
</g>
<!-- email/domain -->
<g id="node20" class="node">
<title>email/domain</title>
<path fill="#dcfce7" stroke="#374151" d="M412.5,-157C412.5,-157 382.5,-157 382.5,-157 376.5,-157 370.5,-151 370.5,-145 370.5,-145 370.5,-133 370.5,-133 370.5,-127 376.5,-121 382.5,-121 382.5,-121 412.5,-121 412.5,-121 418.5,-121 424.5,-127 424.5,-133 424.5,-133 424.5,-145 424.5,-145 424.5,-151 418.5,-157 412.5,-157"/>
<text text-anchor="middle" x="397.5" y="-136.5" font-family="Helvetica,sans-Serif" font-size="10.00" fill="#111827">domain</text>
</g>
<!-- email/public&#45;&gt;email/domain -->
<g id="edge68" class="edge">
<title>email/public&#45;&gt;email/domain</title>
<path fill="none" stroke="#4b5563" stroke-dasharray="1,5" d="M178.58,-157.87C194.33,-156.03 214.8,-153.74 233,-152 278.06,-147.69 330.21,-143.72 363.26,-141.33"/>
<polygon fill="#4b5563" stroke="#4b5563" points="363.62,-143.76 370.43,-140.81 363.27,-138.87 363.62,-143.76"/>
</g>
<!-- email/infrastructure -->
<g id="node21" class="node">
<title>email/infrastructure</title>
<path fill="#ffedd5" stroke="#374151" d="M304,-262C304,-262 245,-262 245,-262 239,-262 233,-256 233,-250 233,-250 233,-238 233,-238 233,-232 239,-226 245,-226 245,-226 304,-226 304,-226 310,-226 316,-232 316,-238 316,-238 316,-250 316,-250 316,-256 310,-262 304,-262"/>
<text text-anchor="middle" x="274.5" y="-241.5" font-family="Helvetica,sans-Serif" font-size="10.00" fill="#111827">infrastructure</text>
</g>
<!-- email/public&#45;&gt;email/infrastructure -->
<g id="edge69" class="edge">
<title>email/public&#45;&gt;email/infrastructure</title>
<path fill="none" stroke="#4b5563" d="M178.76,-171.44C200.36,-184.23 230.64,-205.13 251.11,-221.47"/>
<polygon fill="#4b5563" stroke="#4b5563" points="249.63,-223.42 256.61,-225.94 252.73,-219.62 249.63,-223.42"/>
</g>
<!-- email/presentation -->
<g id="node22" class="node">
<title>email/presentation</title>
<path fill="#fef9c3" stroke="#374151" d="M301.5,-52C301.5,-52 247.5,-52 247.5,-52 241.5,-52 235.5,-46 235.5,-40 235.5,-40 235.5,-28 235.5,-28 235.5,-22 241.5,-16 247.5,-16 247.5,-16 301.5,-16 301.5,-16 307.5,-16 313.5,-22 313.5,-28 313.5,-28 313.5,-40 313.5,-40 313.5,-46 307.5,-52 301.5,-52"/>
<text text-anchor="middle" x="274.5" y="-31.5" font-family="Helvetica,sans-Serif" font-size="10.00" fill="#111827">presentation</text>
</g>
<!-- email/public&#45;&gt;email/presentation -->
<g id="edge70" class="edge">
<title>email/public&#45;&gt;email/presentation</title>
<path fill="none" stroke="#4b5563" stroke-dasharray="1,5" d="M165.57,-142.72C180.6,-122.34 206.61,-88.97 233,-64 235.57,-61.57 238.33,-59.16 241.17,-56.83"/>
<polygon fill="#4b5563" stroke="#4b5563" points="243.09,-58.43 247.05,-52.16 240.04,-54.59 243.09,-58.43"/>
</g>
<!-- email/transport -->
<g id="node23" class="node">
<title>email/transport</title>
<path fill="#ede9fe" stroke="#374151" d="M293,-113C293,-113 256,-113 256,-113 250,-113 244,-107 244,-101 244,-101 244,-89 244,-89 244,-83 250,-77 256,-77 256,-77 293,-77 293,-77 299,-77 305,-83 305,-89 305,-89 305,-101 305,-101 305,-107 299,-113 293,-113"/>
<text text-anchor="middle" x="274.5" y="-92.5" font-family="Helvetica,sans-Serif" font-size="10.00" fill="#111827">transport</text>
</g>
<!-- email/public&#45;&gt;email/transport -->
<g id="edge71" class="edge">
<title>email/public&#45;&gt;email/transport</title>
<path fill="none" stroke="#4b5563" d="M173.03,-142.85C190.62,-131.1 216.39,-116.59 237.42,-106.36"/>
<polygon fill="#4b5563" stroke="#4b5563" points="238.52,-108.56 243.78,-103.34 236.41,-104.13 238.52,-108.56"/>
</g>
<!-- email/public&#45;&gt;kernel/public -->
<g id="edge72" class="edge">
<title>email/public&#45;&gt;kernel/public</title>
<path fill="none" stroke="#4b5563" d="M165.03,-179.22C180.61,-201.75 208.2,-241.12 233,-274 268.61,-321.21 295.09,-322.68 316,-378 380.03,-547.41 322.94,-1013.94 356,-1192 362.49,-1226.95 376.42,-1265.66 386.11,-1290.14"/>
<polygon fill="#4b5563" stroke="#4b5563" points="383.85,-1291.07 388.73,-1296.65 388.39,-1289.25 383.85,-1291.07"/>
</g>
<!-- email/application&#45;&gt;email/domain -->
<g id="edge60" class="edge">
<title>email/application&#45;&gt;email/domain</title>
<path fill="none" stroke="#4b5563" d="M310.17,-170.39C326.92,-164.3 346.91,-157.03 363.43,-151.02"/>
<polygon fill="#4b5563" stroke="#4b5563" points="364.54,-153.23 370.29,-148.53 362.87,-148.62 364.54,-153.23"/>
</g>
<!-- email/application&#45;&gt;kernel/domain -->
<g id="edge61" class="edge">
<title>email/application&#45;&gt;kernel/domain</title>
<path fill="none" stroke="#4b5563" d="M310.24,-182.47C390.14,-183.42 586.01,-198.57 663,-320 711.01,-395.72 725.93,-1055.7 728.55,-1194.46"/>
<polygon fill="#4b5563" stroke="#4b5563" points="726.11,-1194.81 728.69,-1201.77 731.01,-1194.72 726.11,-1194.81"/>
</g>
<!-- email/infrastructure&#45;&gt;email/public -->
<g id="edge62" class="edge">
<title>email/infrastructure&#45;&gt;email/public</title>
<path fill="none" stroke="#4b5563" d="M233.8,-225.99C214.12,-213.53 191.1,-197.25 174.59,-183.89"/>
<polygon fill="#4b5563" stroke="#4b5563" points="175.77,-181.69 168.82,-179.11 172.65,-185.46 175.77,-181.69"/>
</g>
<!-- email/infrastructure&#45;&gt;kernel/public -->
<g id="edge65" class="edge">
<title>email/infrastructure&#45;&gt;kernel/public</title>
<path fill="none" stroke="#4b5563" d="M285.25,-262.16C295.01,-281.38 309.51,-312.89 316,-342 398.33,-711.13 287.34,-820.09 356,-1192 362.45,-1226.96 376.39,-1265.66 386.1,-1290.14"/>
<polygon fill="#4b5563" stroke="#4b5563" points="383.83,-1291.08 388.72,-1296.66 388.38,-1289.25 383.83,-1291.08"/>
</g>
<!-- email/infrastructure&#45;&gt;kernel/domain -->
<g id="edge63" class="edge">
<title>email/infrastructure&#45;&gt;kernel/domain</title>
<path fill="none" stroke="#4b5563" d="M316.05,-244.37C397.52,-247.55 580.33,-267.55 663,-380 712.43,-447.23 726.18,-1062 728.58,-1194.79"/>
<polygon fill="#4b5563" stroke="#4b5563" points="726.13,-1194.84 728.71,-1201.8 731.03,-1194.75 726.13,-1194.84"/>
</g>
<!-- email/infrastructure&#45;&gt;kernel/infrastructure -->
<g id="edge64" class="edge">
<title>email/infrastructure&#45;&gt;kernel/infrastructure</title>
<path fill="none" stroke="#4b5563" d="M286.85,-262.22C318.17,-313.6 405.83,-464.95 441,-604 473.11,-730.94 414.48,-1078.06 479,-1192 479.88,-1193.56 480.9,-1195.06 482.01,-1196.48"/>
<polygon fill="#4b5563" stroke="#4b5563" points="480.21,-1198.14 486.74,-1201.66 483.82,-1194.84 480.21,-1198.14"/>
</g>
<!-- email/presentation&#45;&gt;auth/public -->
<g id="edge66" class="edge">
<title>email/presentation&#45;&gt;auth/public</title>
<path fill="none" stroke="#4b5563" d="M236.34,-52.04C227.03,-58.39 218.24,-66.5 213,-76.5 190.65,-119.11 201.83,-895.7 213,-942.5 221.62,-978.6 242.79,-1016.11 257.88,-1039.73"/>
<polygon fill="#4b5563" stroke="#4b5563" points="255.9,-1041.18 261.77,-1045.72 260.01,-1038.51 255.9,-1041.18"/>
</g>
<!-- email/transport&#45;&gt;email/public -->
<g id="edge73" class="edge">
<title>email/transport&#45;&gt;email/public</title>
<path fill="none" stroke="#4b5563" d="M254.04,-113C235.54,-125.67 207.35,-141.52 185.36,-151.86"/>
<polygon fill="#4b5563" stroke="#4b5563" points="184.1,-149.74 178.76,-154.88 186.14,-154.2 184.1,-149.74"/>
</g>
<!-- email/transport&#45;&gt;kernel/domain -->
<g id="edge74" class="edge">
<title>email/transport&#45;&gt;kernel/domain</title>
<path fill="none" stroke="#4b5563" d="M305.09,-92.96C338.91,-91.62 395.47,-92.4 441,-108 552.72,-146.27 603.44,-152.03 663,-254 711.73,-337.42 726.16,-1050 728.6,-1194.5"/>
<polygon fill="#4b5563" stroke="#4b5563" points="726.15,-1194.75 728.72,-1201.71 731.05,-1194.67 726.15,-1194.75"/>
</g>
<!-- genre/application -->
<g id="node25" class="node">
<title>genre/application</title>
<path fill="#dbeafe" stroke="#374151" d="M421,-2003C421,-2003 374,-2003 374,-2003 368,-2003 362,-1997 362,-1991 362,-1991 362,-1979 362,-1979 362,-1973 368,-1967 374,-1967 374,-1967 421,-1967 421,-1967 427,-1967 433,-1973 433,-1979 433,-1979 433,-1991 433,-1991 433,-1997 427,-2003 421,-2003"/>
<text text-anchor="middle" x="397.5" y="-1982.5" font-family="Helvetica,sans-Serif" font-size="10.00" fill="#111827">application</text>
</g>
<!-- genre/public&#45;&gt;genre/application -->
<g id="edge83" class="edge">
<title>genre/public&#45;&gt;genre/application</title>
<path fill="none" stroke="#4b5563" d="M301.76,-2036.68C317.85,-2027.9 338.77,-2016.49 356.85,-2006.63"/>
<polygon fill="#4b5563" stroke="#4b5563" points="358.4,-2008.57 363.37,-2003.07 356.05,-2004.27 358.4,-2008.57"/>
</g>
<!-- genre/domain -->
<g id="node26" class="node">
<title>genre/domain</title>
<path fill="#dcfce7" stroke="#374151" d="M535.5,-2003C535.5,-2003 505.5,-2003 505.5,-2003 499.5,-2003 493.5,-1997 493.5,-1991 493.5,-1991 493.5,-1979 493.5,-1979 493.5,-1973 499.5,-1967 505.5,-1967 505.5,-1967 535.5,-1967 535.5,-1967 541.5,-1967 547.5,-1973 547.5,-1979 547.5,-1979 547.5,-1991 547.5,-1991 547.5,-1997 541.5,-2003 535.5,-2003"/>
<text text-anchor="middle" x="520.5" y="-1982.5" font-family="Helvetica,sans-Serif" font-size="10.00" fill="#111827">domain</text>
</g>
<!-- genre/public&#45;&gt;genre/domain -->
<g id="edge84" class="edge">
<title>genre/public&#45;&gt;genre/domain</title>
<path fill="none" stroke="#4b5563" stroke-dasharray="1,5" d="M301.64,-2046.87C334.55,-2041.35 392.63,-2030.55 441,-2016 456.31,-2011.39 472.84,-2005.08 486.76,-1999.35"/>
<polygon fill="#4b5563" stroke="#4b5563" points="487.85,-2001.55 493.36,-1996.6 485.96,-1997.03 487.85,-2001.55"/>
</g>
<!-- genre/public&#45;&gt;genre/infrastructure -->
<g id="edge85" class="edge">
<title>genre/public&#45;&gt;genre/infrastructure</title>
<path fill="none" stroke="#4b5563" d="M285.92,-2069.32C299.93,-2093.02 326.53,-2134.85 356,-2165 358.4,-2167.45 361.01,-2169.86 363.71,-2172.17"/>
<polygon fill="#4b5563" stroke="#4b5563" points="362.39,-2174.25 369.36,-2176.78 365.49,-2170.45 362.39,-2174.25"/>
</g>
<!-- genre/presentation -->
<g id="node28" class="node">
<title>genre/presentation</title>
<path fill="#fef9c3" stroke="#374151" d="M424.5,-2152C424.5,-2152 370.5,-2152 370.5,-2152 364.5,-2152 358.5,-2146 358.5,-2140 358.5,-2140 358.5,-2128 358.5,-2128 358.5,-2122 364.5,-2116 370.5,-2116 370.5,-2116 424.5,-2116 424.5,-2116 430.5,-2116 436.5,-2122 436.5,-2128 436.5,-2128 436.5,-2140 436.5,-2140 436.5,-2146 430.5,-2152 424.5,-2152"/>
<text text-anchor="middle" x="397.5" y="-2131.5" font-family="Helvetica,sans-Serif" font-size="10.00" fill="#111827">presentation</text>
</g>
<!-- genre/public&#45;&gt;genre/presentation -->
<g id="edge86" class="edge">
<title>genre/public&#45;&gt;genre/presentation</title>
<path fill="none" stroke="#4b5563" stroke-dasharray="1,5" d="M301.76,-2061.44C323.36,-2074.23 353.64,-2095.13 374.11,-2111.47"/>
<polygon fill="#4b5563" stroke="#4b5563" points="372.63,-2113.42 379.61,-2115.94 375.73,-2109.62 372.63,-2113.42"/>
</g>
<!-- genre/transport -->
<g id="node29" class="node">
<title>genre/transport</title>
<path fill="#ede9fe" stroke="#374151" d="M416,-2091C416,-2091 379,-2091 379,-2091 373,-2091 367,-2085 367,-2079 367,-2079 367,-2067 367,-2067 367,-2061 373,-2055 379,-2055 379,-2055 416,-2055 416,-2055 422,-2055 428,-2061 428,-2067 428,-2067 428,-2079 428,-2079 428,-2085 422,-2091 416,-2091"/>
<text text-anchor="middle" x="397.5" y="-2070.5" font-family="Helvetica,sans-Serif" font-size="10.00" fill="#111827">transport</text>
</g>
<!-- genre/public&#45;&gt;genre/transport -->
<g id="edge87" class="edge">
<title>genre/public&#45;&gt;genre/transport</title>
<path fill="none" stroke="#4b5563" stroke-dasharray="1,5" d="M301.76,-2055.77C318.69,-2058.85 340.96,-2062.9 359.66,-2066.3"/>
<polygon fill="#4b5563" stroke="#4b5563" points="359.57,-2068.78 366.9,-2067.62 360.45,-2063.95 359.57,-2068.78"/>
</g>
<!-- genre/application&#45;&gt;genre/domain -->
<g id="edge75" class="edge">
<title>genre/application&#45;&gt;genre/domain</title>
<path fill="none" stroke="#4b5563" d="M433.17,-1985C449.77,-1985 469.55,-1985 485.99,-1985"/>
<polygon fill="#4b5563" stroke="#4b5563" points="486.29,-1987.45 493.29,-1985 486.29,-1982.55 486.29,-1987.45"/>
</g>
<!-- genre/domain&#45;&gt;kernel/public -->
<g id="edge76" class="edge">
<title>genre/domain&#45;&gt;kernel/public</title>
<path fill="none" stroke="#4b5563" d="M516.2,-1966.75C499.33,-1873.3 422.63,-1448.6 403.06,-1340.23"/>
<polygon fill="#4b5563" stroke="#4b5563" points="405.45,-1339.72 401.8,-1333.27 400.63,-1340.59 405.45,-1339.72"/>
</g>
<!-- genre/infrastructure&#45;&gt;genre/domain -->
<g id="edge77" class="edge">
<title>genre/infrastructure&#45;&gt;genre/domain</title>
<path fill="none" stroke="#4b5563" d="M428.64,-2176.91C433.15,-2173.34 437.46,-2169.34 441,-2165 479.96,-2117.18 503.06,-2047.04 513.26,-2010.02"/>
<polygon fill="#4b5563" stroke="#4b5563" points="515.68,-2010.47 515.13,-2003.07 510.94,-2009.19 515.68,-2010.47"/>
</g>
<!-- genre/infrastructure&#45;&gt;kernel/domain -->
<g id="edge78" class="edge">
<title>genre/infrastructure&#45;&gt;kernel/domain</title>
<path fill="none" stroke="#4b5563" d="M439.14,-2188.04C500.67,-2175.04 615.36,-2140.61 663,-2059 704.98,-1987.09 724.53,-1377.98 728.31,-1245.41"/>
<polygon fill="#4b5563" stroke="#4b5563" points="730.77,-1245.12 728.52,-1238.06 725.87,-1244.99 730.77,-1245.12"/>
</g>
<!-- genre/infrastructure&#45;&gt;kernel/infrastructure -->
<g id="edge79" class="edge">
<title>genre/infrastructure&#45;&gt;kernel/infrastructure</title>
<path fill="none" stroke="#4b5563" d="M439.01,-2181.23C439.73,-2180.19 440.39,-2179.11 441,-2178 486.92,-2093.97 455.62,-1409.86 479,-1317 485.46,-1291.33 500.19,-1264.18 509.99,-1244.53"/>
<polygon fill="#4b5563" stroke="#4b5563" points="512.23,-1245.53 513.11,-1238.16 507.83,-1243.37 512.23,-1245.53"/>
</g>
<!-- genre/presentation&#45;&gt;genre/public -->
<g id="edge81" class="edge">
<title>genre/presentation&#45;&gt;genre/public</title>
<path fill="none" stroke="#4b5563" d="M358.34,-2116.96C338.22,-2104.31 314.25,-2087.4 297.29,-2073.64"/>
<polygon fill="#4b5563" stroke="#4b5563" points="298.77,-2071.69 291.82,-2069.11 295.64,-2075.46 298.77,-2071.69"/>
</g>
<!-- genre/presentation&#45;&gt;genre/domain -->
<g id="edge80" class="edge">
<title>genre/presentation&#45;&gt;genre/domain</title>
<path fill="none" stroke="#4b5563" d="M427.57,-2115.69C432.31,-2112.1 436.98,-2108.15 441,-2104 468.98,-2075.12 493.07,-2034.96 506.93,-2009.48"/>
<polygon fill="#4b5563" stroke="#4b5563" points="509.25,-2010.34 510.4,-2003.01 504.93,-2008.03 509.25,-2010.34"/>
</g>
<!-- genre/presentation&#45;&gt;kernel/domain -->
<g id="edge82" class="edge">
<title>genre/presentation&#45;&gt;kernel/domain</title>
<path fill="none" stroke="#4b5563" d="M436.83,-2129.65C498.54,-2120.29 617.59,-2091.84 663,-2009 700.53,-1940.53 723.43,-1372.02 728.11,-1245.07"/>
<polygon fill="#4b5563" stroke="#4b5563" points="730.56,-1245.1 728.37,-1238.02 725.66,-1244.92 730.56,-1245.1"/>
</g>
<!-- genre/transport&#45;&gt;auth/public -->
<g id="edge88" class="edge">
<title>genre/transport&#45;&gt;auth/public</title>
<path fill="none" stroke="#4b5563" stroke-dasharray="5,2" d="M379.45,-2054.76C370.75,-2044.26 360.98,-2030.34 356,-2016 298.08,-1849.1 342.51,-1396.67 316,-1222 308.76,-1174.31 293.22,-1120.13 283.64,-1089.21"/>
<polygon fill="#4b5563" stroke="#4b5563" points="285.88,-1088.19 281.45,-1082.24 281.21,-1089.65 285.88,-1088.19"/>
</g>
<!-- genre/transport&#45;&gt;kernel/domain -->
<g id="edge89" class="edge">
<title>genre/transport&#45;&gt;kernel/domain</title>
<path fill="none" stroke="#4b5563" d="M428.27,-2076.46C462.42,-2079.07 519.21,-2079.19 562,-2058 621.48,-2028.55 636.14,-2008.69 663,-1948 720.48,-1818.1 727.9,-1358.72 728.86,-1245.41"/>
<polygon fill="#4b5563" stroke="#4b5563" points="731.31,-1245.17 728.91,-1238.15 726.41,-1245.13 731.31,-1245.17"/>
</g>
<!-- genre/transport&#45;&gt;kernel/transport -->
<g id="edge90" class="edge">
<title>genre/transport&#45;&gt;kernel/transport</title>
<path fill="none" stroke="#4b5563" d="M428.17,-2071.89C465.85,-2068.75 529.82,-2057.23 562,-2016 608.76,-1956.1 627.21,-1398.99 630.82,-1272.47"/>
<polygon fill="#4b5563" stroke="#4b5563" points="633.28,-1272.17 631.02,-1265.1 628.38,-1272.03 633.28,-1272.17"/>
</g>
<!-- kernel/application -->
<g id="node31" class="node">
<title>kernel/application</title>
<path fill="#dbeafe" stroke="#374151" d="M544,-1353C544,-1353 497,-1353 497,-1353 491,-1353 485,-1347 485,-1341 485,-1341 485,-1329 485,-1329 485,-1323 491,-1317 497,-1317 497,-1317 544,-1317 544,-1317 550,-1317 556,-1323 556,-1329 556,-1329 556,-1341 556,-1341 556,-1347 550,-1353 544,-1353"/>
<text text-anchor="middle" x="520.5" y="-1332.5" font-family="Helvetica,sans-Serif" font-size="10.00" fill="#111827">application</text>
</g>
<!-- kernel/public&#45;&gt;kernel/application -->
<g id="edge97" class="edge">
<title>kernel/public&#45;&gt;kernel/application</title>
<path fill="none" stroke="#4b5563" stroke-dasharray="1,5" d="M424.76,-1319.34C440.08,-1321.87 459.78,-1325.13 477.24,-1328.01"/>
<polygon fill="#4b5563" stroke="#4b5563" points="477.26,-1330.5 484.57,-1329.23 478.06,-1325.67 477.26,-1330.5"/>
</g>
<!-- kernel/public&#45;&gt;kernel/domain -->
<g id="edge98" class="edge">
<title>kernel/public&#45;&gt;kernel/domain</title>
<path fill="none" stroke="#4b5563" stroke-dasharray="1,5" d="M424.68,-1311.44C490.42,-1302.46 657.58,-1279.47 663,-1277 680.24,-1269.15 696.39,-1255.35 708.4,-1243.3"/>
<polygon fill="#4b5563" stroke="#4b5563" points="710.17,-1245 713.29,-1238.27 706.66,-1241.58 710.17,-1245"/>
</g>
<!-- kernel/public&#45;&gt;kernel/infrastructure -->
<g id="edge99" class="edge">
<title>kernel/public&#45;&gt;kernel/infrastructure</title>
<path fill="none" stroke="#4b5563" d="M421.54,-1296.91C441.22,-1281.46 469.62,-1259.16 490.78,-1242.55"/>
<polygon fill="#4b5563" stroke="#4b5563" points="492.55,-1244.27 496.54,-1238.03 489.52,-1240.42 492.55,-1244.27"/>
</g>
<!-- kernel/public&#45;&gt;kernel/transport -->
<g id="edge100" class="edge">
<title>kernel/public&#45;&gt;kernel/transport</title>
<path fill="none" stroke="#4b5563" stroke-dasharray="5,2" d="M424.66,-1303.94C440.26,-1297.59 460.56,-1289.76 479,-1284 518,-1271.82 563.64,-1261.21 594.76,-1254.51"/>
<polygon fill="#4b5563" stroke="#4b5563" points="595.62,-1256.83 601.96,-1252.98 594.6,-1252.04 595.62,-1256.83"/>
</g>
<!-- kernel/infrastructure&#45;&gt;auth/infrastructure -->
<g id="edge91" class="edge">
<title>kernel/infrastructure&#45;&gt;auth/infrastructure</title>
<path fill="none" stroke="#4b5563" d="M503.57,-1201.92C495.1,-1195.73 485.19,-1188.81 479,-1180 441.18,-1126.21 469.62,-1096.21 441,-1037 437.5,-1029.77 433.04,-1022.53 428.32,-1015.95"/>
<polygon fill="#4b5563" stroke="#4b5563" points="430.11,-1014.24 423.94,-1010.12 426.19,-1017.18 430.11,-1014.24"/>
</g>
<!-- kernel/infrastructure&#45;&gt;book/infrastructure -->
<g id="edge92" class="edge">
<title>kernel/infrastructure&#45;&gt;book/infrastructure</title>
<path fill="none" stroke="#4b5563" d="M510.48,-1238.27C502.16,-1255.23 489.53,-1281.22 479,-1304 403.92,-1466.36 428.38,-1532.83 316,-1672 282.01,-1714.09 229.71,-1748.62 193.45,-1769.45"/>
<polygon fill="#4b5563" stroke="#4b5563" points="192.2,-1767.34 187.32,-1772.92 194.62,-1771.6 192.2,-1767.34"/>
</g>
<!-- kernel/infrastructure&#45;&gt;email/infrastructure -->
<g id="edge93" class="edge">
<title>kernel/infrastructure&#45;&gt;email/infrastructure</title>
<path fill="none" stroke="#4b5563" stroke-dasharray="1,5" d="M486.68,-1201.69C483.66,-1198.81 480.99,-1195.59 479,-1192 392.32,-1035.79 518.59,-549.91 441,-389 414.15,-333.31 355.1,-290.08 315.3,-265.82"/>
<polygon fill="#4b5563" stroke="#4b5563" points="316.35,-263.59 309.08,-262.09 313.83,-267.79 316.35,-263.59"/>
</g>
<!-- kernel/infrastructure&#45;&gt;genre/infrastructure -->
<g id="edge94" class="edge">
<title>kernel/infrastructure&#45;&gt;genre/infrastructure</title>
<path fill="none" stroke="#4b5563" d="M502,-1238.15C493.4,-1252.54 483.86,-1272.69 479,-1292 455.62,-1384.86 486.92,-2068.97 441,-2153 436.74,-2160.8 429.47,-2167.04 422.14,-2172.44"/>
<polygon fill="#4b5563" stroke="#4b5563" points="420.3,-2170.74 416.03,-2176.8 423.15,-2174.73 420.3,-2170.74"/>
</g>
<!-- kernel/infrastructure&#45;&gt;kernel/domain -->
<g id="edge95" class="edge">
<title>kernel/infrastructure&#45;&gt;kernel/domain</title>
<path fill="none" stroke="#4b5563" d="M562.02,-1217.59C574.81,-1216.94 588.99,-1216.32 602,-1216 629.1,-1215.33 635.9,-1215.18 663,-1216 673.72,-1216.32 685.41,-1216.95 695.93,-1217.6"/>
<polygon fill="#4b5563" stroke="#4b5563" points="695.85,-1220.05 703,-1218.06 696.17,-1215.16 695.85,-1220.05"/>
</g>
<!-- kernel/infrastructure&#45;&gt;kernel/transport -->
<g id="edge96" class="edge">
<title>kernel/infrastructure&#45;&gt;kernel/transport</title>
<path fill="none" stroke="#4b5563" d="M562.15,-1229.98C572.79,-1232.59 584.2,-1235.39 594.63,-1237.95"/>
<polygon fill="#4b5563" stroke="#4b5563" points="594.29,-1240.39 601.68,-1239.68 595.46,-1235.63 594.29,-1240.39"/>
</g>
<!-- kernel/transport&#45;&gt;kernel/domain -->
<g id="edge101" class="edge">
<title>kernel/transport&#45;&gt;kernel/domain</title>
<path fill="none" stroke="#4b5563" d="M663.19,-1238.61C673.61,-1235.66 685.38,-1232.33 696.05,-1229.32"/>
<polygon fill="#4b5563" stroke="#4b5563" points="696.81,-1231.65 702.88,-1227.38 695.48,-1226.93 696.81,-1231.65"/>
</g>
<!-- lifecycle&#45;events/public -->
<g id="node35" class="node">
<title>lifecycle&#45;events/public</title>
<path fill="#f3f4f6" stroke="#374151" d="M289.5,-776C289.5,-776 259.5,-776 259.5,-776 253.5,-776 247.5,-770 247.5,-764 247.5,-764 247.5,-752 247.5,-752 247.5,-746 253.5,-740 259.5,-740 259.5,-740 289.5,-740 289.5,-740 295.5,-740 301.5,-746 301.5,-752 301.5,-752 301.5,-764 301.5,-764 301.5,-770 295.5,-776 289.5,-776"/>
<text text-anchor="middle" x="274.5" y="-755.5" font-family="Helvetica,sans-Serif" font-size="10.00" fill="#111827">public</text>
</g>
<!-- lifecycle&#45;events/public&#45;&gt;kernel/public -->
<g id="edge104" class="edge">
<title>lifecycle&#45;events/public&#45;&gt;kernel/public</title>
<path fill="none" stroke="#4b5563" d="M281.67,-776.02C290.56,-802.62 306.87,-854.07 316,-899 345.25,-1042.91 315.93,-1085.71 356,-1227 362.32,-1249.28 373.56,-1273.06 382.6,-1290.27"/>
<polygon fill="#4b5563" stroke="#4b5563" points="380.61,-1291.74 386.07,-1296.76 384.93,-1289.43 380.61,-1291.74"/>
</g>
<!-- lifecycle&#45;events/public&#45;&gt;kernel/infrastructure -->
<g id="edge103" class="edge">
<title>lifecycle&#45;events/public&#45;&gt;kernel/infrastructure</title>
<path fill="none" stroke="#4b5563" d="M281.59,-776.04C290.36,-802.66 306.54,-854.14 316,-899 329.52,-963.08 310.61,-1143.78 356,-1191 385.31,-1221.49 434.73,-1226.56 471.58,-1225.33"/>
<polygon fill="#4b5563" stroke="#4b5563" points="471.89,-1227.77 478.77,-1225 471.67,-1222.87 471.89,-1227.77"/>
</g>
<!-- lifecycle&#45;events/application -->
<g id="node36" class="node">
<title>lifecycle&#45;events/application</title>
<path fill="#dbeafe" stroke="#374151" d="M421,-654C421,-654 374,-654 374,-654 368,-654 362,-648 362,-642 362,-642 362,-630 362,-630 362,-624 368,-618 374,-618 374,-618 421,-618 421,-618 427,-618 433,-624 433,-630 433,-630 433,-642 433,-642 433,-648 427,-654 421,-654"/>
<text text-anchor="middle" x="397.5" y="-633.5" font-family="Helvetica,sans-Serif" font-size="10.00" fill="#111827">application</text>
</g>
<!-- lifecycle&#45;events/public&#45;&gt;lifecycle&#45;events/application -->
<g id="edge105" class="edge">
<title>lifecycle&#45;events/public&#45;&gt;lifecycle&#45;events/application</title>
<path fill="none" stroke="#4b5563" d="M289.58,-739.68C304.88,-720.33 330.56,-689.45 356,-666 358.6,-663.61 361.38,-661.22 364.23,-658.9"/>
<polygon fill="#4b5563" stroke="#4b5563" points="366.15,-660.51 370.13,-654.25 363.12,-656.66 366.15,-660.51"/>
</g>
<!-- lifecycle&#45;events/domain -->
<g id="node37" class="node">
<title>lifecycle&#45;events/domain</title>
<path fill="#dcfce7" stroke="#374151" d="M412.5,-715C412.5,-715 382.5,-715 382.5,-715 376.5,-715 370.5,-709 370.5,-703 370.5,-703 370.5,-691 370.5,-691 370.5,-685 376.5,-679 382.5,-679 382.5,-679 412.5,-679 412.5,-679 418.5,-679 424.5,-685 424.5,-691 424.5,-691 424.5,-703 424.5,-703 424.5,-709 418.5,-715 412.5,-715"/>
<text text-anchor="middle" x="397.5" y="-694.5" font-family="Helvetica,sans-Serif" font-size="10.00" fill="#111827">domain</text>
</g>
<!-- lifecycle&#45;events/public&#45;&gt;lifecycle&#45;events/domain -->
<g id="edge106" class="edge">
<title>lifecycle&#45;events/public&#45;&gt;lifecycle&#45;events/domain</title>
<path fill="none" stroke="#4b5563" stroke-dasharray="1,5" d="M301.76,-744.76C319.99,-735.57 344.41,-723.26 363.89,-713.44"/>
<polygon fill="#4b5563" stroke="#4b5563" points="365.15,-715.55 370.3,-710.21 362.94,-711.17 365.15,-715.55"/>
</g>
<!-- lifecycle&#45;events/transport -->
<g id="node38" class="node">
<title>lifecycle&#45;events/transport</title>
<path fill="#ede9fe" stroke="#374151" d="M416,-776C416,-776 379,-776 379,-776 373,-776 367,-770 367,-764 367,-764 367,-752 367,-752 367,-746 373,-740 379,-740 379,-740 416,-740 416,-740 422,-740 428,-746 428,-752 428,-752 428,-764 428,-764 428,-770 422,-776 416,-776"/>
<text text-anchor="middle" x="397.5" y="-755.5" font-family="Helvetica,sans-Serif" font-size="10.00" fill="#111827">transport</text>
</g>
<!-- lifecycle&#45;events/public&#45;&gt;lifecycle&#45;events/transport -->
<g id="edge107" class="edge">
<title>lifecycle&#45;events/public&#45;&gt;lifecycle&#45;events/transport</title>
<path fill="none" stroke="#4b5563" d="M301.76,-758C318.69,-758 340.96,-758 359.66,-758"/>
<polygon fill="#4b5563" stroke="#4b5563" points="359.9,-760.45 366.9,-758 359.9,-755.55 359.9,-760.45"/>
</g>
<!-- lifecycle&#45;events/application&#45;&gt;kernel/domain -->
<g id="edge102" class="edge">
<title>lifecycle&#45;events/application&#45;&gt;kernel/domain</title>
<path fill="none" stroke="#4b5563" d="M433.15,-647.47C491.15,-668.6 607.01,-719.53 663,-805 705.6,-870.03 723.01,-1114.41 727.65,-1194.45"/>
<polygon fill="#4b5563" stroke="#4b5563" points="725.22,-1194.82 728.06,-1201.67 730.11,-1194.54 725.22,-1194.82"/>
</g>
<!-- user/application -->
<g id="node40" class="node">
<title>user/application</title>
<path fill="#dbeafe" stroke="#374151" d="M175,-426C175,-426 128,-426 128,-426 122,-426 116,-420 116,-414 116,-414 116,-402 116,-402 116,-396 122,-390 128,-390 128,-390 175,-390 175,-390 181,-390 187,-396 187,-402 187,-402 187,-414 187,-414 187,-420 181,-426 175,-426"/>
<text text-anchor="middle" x="151.5" y="-405.5" font-family="Helvetica,sans-Serif" font-size="10.00" fill="#111827">application</text>
</g>
<!-- user/public&#45;&gt;user/application -->
<g id="edge115" class="edge">
<title>user/public&#45;&gt;user/application</title>
<path fill="none" stroke="#4b5563" d="M57.45,-507.99C70.31,-491.15 90.56,-465.57 110,-445 114.42,-440.32 119.33,-435.54 124.16,-431.03"/>
<polygon fill="#4b5563" stroke="#4b5563" points="125.85,-432.8 129.34,-426.26 122.53,-429.19 125.85,-432.8"/>
</g>
<!-- user/domain -->
<g id="node41" class="node">
<title>user/domain</title>
<path fill="#dcfce7" stroke="#374151" d="M289.5,-514C289.5,-514 259.5,-514 259.5,-514 253.5,-514 247.5,-508 247.5,-502 247.5,-502 247.5,-490 247.5,-490 247.5,-484 253.5,-478 259.5,-478 259.5,-478 289.5,-478 289.5,-478 295.5,-478 301.5,-484 301.5,-490 301.5,-490 301.5,-502 301.5,-502 301.5,-508 295.5,-514 289.5,-514"/>
<text text-anchor="middle" x="274.5" y="-493.5" font-family="Helvetica,sans-Serif" font-size="10.00" fill="#111827">domain</text>
</g>
<!-- user/public&#45;&gt;user/domain -->
<g id="edge116" class="edge">
<title>user/public&#45;&gt;user/domain</title>
<path fill="none" stroke="#4b5563" stroke-dasharray="1,5" d="M57.13,-507.97C69.04,-493.27 88.06,-473.59 110,-465 153.51,-447.97 207.29,-464.83 241.01,-479.55"/>
<polygon fill="#4b5563" stroke="#4b5563" points="240.09,-481.83 247.48,-482.46 242.1,-477.36 240.09,-481.83"/>
</g>
<!-- user/presentation -->
<g id="node42" class="node">
<title>user/presentation</title>
<path fill="#fef9c3" stroke="#374151" d="M178.5,-575C178.5,-575 124.5,-575 124.5,-575 118.5,-575 112.5,-569 112.5,-563 112.5,-563 112.5,-551 112.5,-551 112.5,-545 118.5,-539 124.5,-539 124.5,-539 178.5,-539 178.5,-539 184.5,-539 190.5,-545 190.5,-551 190.5,-551 190.5,-563 190.5,-563 190.5,-569 184.5,-575 178.5,-575"/>
<text text-anchor="middle" x="151.5" y="-554.5" font-family="Helvetica,sans-Serif" font-size="10.00" fill="#111827">presentation</text>
</g>
<!-- user/public&#45;&gt;user/presentation -->
<g id="edge117" class="edge">
<title>user/public&#45;&gt;user/presentation</title>
<path fill="none" stroke="#4b5563" stroke-dasharray="1,5" d="M70.05,-525.72C82.22,-528.15 96.97,-532.15 110.51,-536.61"/>
<polygon fill="#4b5563" stroke="#4b5563" points="110.04,-539.04 117.45,-538.98 111.62,-534.4 110.04,-539.04"/>
</g>
<!-- user/transport -->
<g id="node43" class="node">
<title>user/transport</title>
<path fill="#ede9fe" stroke="#374151" d="M170,-514C170,-514 133,-514 133,-514 127,-514 121,-508 121,-502 121,-502 121,-490 121,-490 121,-484 127,-478 133,-478 133,-478 170,-478 170,-478 176,-478 182,-484 182,-490 182,-490 182,-502 182,-502 182,-508 176,-514 170,-514"/>
<text text-anchor="middle" x="151.5" y="-493.5" font-family="Helvetica,sans-Serif" font-size="10.00" fill="#111827">transport</text>
</g>
<!-- user/public&#45;&gt;user/transport -->
<g id="edge118" class="edge">
<title>user/public&#45;&gt;user/transport</title>
<path fill="none" stroke="#4b5563" stroke-dasharray="1,5" d="M70.05,-518.66C83.28,-514.93 99.57,-510.35 114.03,-506.27"/>
<polygon fill="#4b5563" stroke="#4b5563" points="114.88,-508.58 120.96,-504.32 113.55,-503.86 114.88,-508.58"/>
</g>
<!-- user/application&#45;&gt;user/domain -->
<g id="edge108" class="edge">
<title>user/application&#45;&gt;user/domain</title>
<path fill="none" stroke="#4b5563" d="M177.28,-426.02C196.16,-439.75 222.27,-458.74 242.52,-473.47"/>
<polygon fill="#4b5563" stroke="#4b5563" points="241.24,-475.57 248.34,-477.7 244.12,-471.6 241.24,-475.57"/>
</g>
<!-- user/domain&#45;&gt;kernel/domain -->
<g id="edge109" class="edge">
<title>user/domain&#45;&gt;kernel/domain</title>
<path fill="none" stroke="#4b5563" d="M301.63,-503.05C374.27,-524.2 578.83,-594.64 663,-737 709.61,-815.84 724.58,-1106.63 728.1,-1194.61"/>
<polygon fill="#4b5563" stroke="#4b5563" points="725.66,-1194.88 728.38,-1201.78 730.55,-1194.69 725.66,-1194.88"/>
</g>
<!-- user/presentation&#45;&gt;auth/public -->
<g id="edge110" class="edge">
<title>user/presentation&#45;&gt;auth/public</title>
<path fill="none" stroke="#4b5563" d="M156.81,-575.04C175.09,-651.65 246.32,-950.1 267.52,-1038.92"/>
<polygon fill="#4b5563" stroke="#4b5563" points="265.17,-1039.67 269.18,-1045.91 269.94,-1038.53 265.17,-1039.67"/>
</g>
<!-- user/presentation&#45;&gt;kernel/public -->
<g id="edge112" class="edge">
<title>user/presentation&#45;&gt;kernel/public</title>
<path fill="none" stroke="#4b5563" d="M152.42,-575.07C152.35,-667.83 156.31,-1090.01 233,-1190 257.26,-1221.63 283.5,-1200.91 316,-1224 341.98,-1242.46 365.33,-1270.82 380.11,-1290.98"/>
<polygon fill="#4b5563" stroke="#4b5563" points="378.15,-1292.44 384.23,-1296.69 382.12,-1289.58 378.15,-1292.44"/>
</g>
<!-- user/presentation&#45;&gt;kernel/domain -->
<g id="edge111" class="edge">
<title>user/presentation&#45;&gt;kernel/domain</title>
<path fill="none" stroke="#4b5563" d="M178.89,-538.88C183.84,-534.91 188.78,-530.54 193,-526 215.07,-502.26 204.47,-480.41 233,-465 265.46,-447.47 279.8,-457.9 316,-465 489.17,-498.97 580.21,-502.15 663,-658 713.59,-753.23 725.95,-1098.42 728.44,-1194.83"/>
<polygon fill="#4b5563" stroke="#4b5563" points="725.99,-1194.91 728.62,-1201.85 730.89,-1194.79 725.99,-1194.91"/>
</g>
<!-- user/presentation&#45;&gt;user/public -->
<g id="edge114" class="edge">
<title>user/presentation&#45;&gt;user/public</title>
<path fill="none" stroke="#4b5563" d="M112.24,-555.26C100.64,-552.44 88.02,-548.66 76.82,-544.64"/>
<polygon fill="#4b5563" stroke="#4b5563" points="77.47,-542.26 70.05,-542.1 75.75,-546.85 77.47,-542.26"/>
</g>
<!-- user/presentation&#45;&gt;user/domain -->
<g id="edge113" class="edge">
<title>user/presentation&#45;&gt;user/domain</title>
<path fill="none" stroke="#4b5563" d="M188.48,-538.86C205.2,-530.43 224.94,-520.48 241.19,-512.29"/>
<polygon fill="#4b5563" stroke="#4b5563" points="242.31,-514.47 247.46,-509.13 240.11,-510.09 242.31,-514.47"/>
</g>
<!-- user/transport&#45;&gt;auth/public -->
<g id="edge119" class="edge">
<title>user/transport&#45;&gt;auth/public</title>
<path fill="none" stroke="#4b5563" stroke-dasharray="5,2" d="M182.37,-513.47C186.53,-517.11 190.3,-521.29 193,-526 233.93,-597.36 219,-812.94 233,-894 241.98,-945.98 257.44,-1005.76 266.44,-1038.78"/>
<polygon fill="#4b5563" stroke="#4b5563" points="264.15,-1039.69 268.36,-1045.79 268.87,-1038.39 264.15,-1039.69"/>
</g>
<!-- user/transport&#45;&gt;kernel/domain -->
<g id="edge120" class="edge">
<title>user/transport&#45;&gt;kernel/domain</title>
<path fill="none" stroke="#4b5563" d="M182.24,-513.54C186.42,-517.18 190.22,-521.34 193,-526 257.57,-634.37 142.13,-719.5 233,-807 285.63,-857.67 323.44,-824 396.5,-824 396.5,-824 396.5,-824 521.5,-824 689.68,-824 721.82,-1107.71 727.72,-1194.85"/>
<polygon fill="#4b5563" stroke="#4b5563" points="725.28,-1195.13 728.17,-1201.96 730.17,-1194.81 725.28,-1195.13"/>
</g>
<!-- user/transport&#45;&gt;kernel/transport -->
<g id="edge121" class="edge">
<title>user/transport&#45;&gt;kernel/transport</title>
<path fill="none" stroke="#4b5563" d="M182.3,-513.51C186.47,-517.14 190.26,-521.32 193,-526 264.71,-648.57 134.77,-740.45 233,-843 335.6,-950.12 455.63,-795.62 562,-899 608.36,-944.05 625.42,-1149.09 630.06,-1221.55"/>
<polygon fill="#4b5563" stroke="#4b5563" points="627.64,-1222.09 630.52,-1228.92 632.53,-1221.78 627.64,-1222.09"/>
</g>
<!-- user/transport&#45;&gt;user/domain -->
<g id="edge122" class="edge">
<title>user/transport&#45;&gt;user/domain</title>
<path fill="none" stroke="#4b5563" d="M182.1,-496C199.76,-496 222.23,-496 240.47,-496"/>
<polygon fill="#4b5563" stroke="#4b5563" points="240.49,-498.45 247.49,-496 240.49,-493.55 240.49,-498.45"/>
</g>
</g>
</svg>
